<?xml version="1.0" encoding="utf-8"?>
<!-- Generator: Adobe Illustrator 23.0.2, SVG Export Plug-In . SVG Version: 6.00 Build 0)  -->
<svg version="1.1" id="Layer_1" xmlns="http://www.w3.org/2000/svg" xmlns:xlink="http://www.w3.org/1999/xlink" x="0px" y="0px"
	 viewBox="0 0 83 29.4" style="enable-background:new 0 0 83 29.4;" xml:space="preserve">
<style type="text/css">
	.st0{fill:#005FCD;}
	.st1{fill:#360372;}
	.st2{enable-background:new    ;}
	.st3{fill:#FFFFFF;}
</style>
<g id="i-new" transform="translate(-522 -1393)">
	<rect id="Rectangle_1" x="522" y="1393" class="st0" width="83" height="20"/>
	<path id="Path_34" class="st1" d="M590.4,1413v9.4l14.2-9.4H590.4z"/>
	<g class="st2">
		<path class="st3" d="M548.5,1398.6v8.4h-1.2v-3.7h-4.8v3.7h-1.2v-8.4h1.2v3.6h4.8v-3.6H548.5z"/>
		<path class="st3" d="M552.6,1406.5c-0.7-0.4-1.2-0.9-1.6-1.5s-0.6-1.4-0.6-2.2c0-0.8,0.2-1.5,0.6-2.2c0.4-0.7,0.9-1.2,1.6-1.5
			c0.7-0.4,1.4-0.6,2.3-0.6c0.8,0,1.6,0.2,2.3,0.6c0.7,0.4,1.2,0.9,1.6,1.5c0.4,0.7,0.6,1.4,0.6,2.2c0,0.8-0.2,1.5-0.6,2.2
			c-0.4,0.7-0.9,1.2-1.6,1.5c-0.7,0.4-1.4,0.6-2.3,0.6C554.1,1407.1,553.3,1406.9,552.6,1406.5z M556.6,1405.6
			c0.5-0.3,0.9-0.7,1.2-1.2c0.3-0.5,0.4-1,0.4-1.7c0-0.6-0.1-1.2-0.4-1.6c-0.3-0.5-0.7-0.9-1.2-1.2s-1-0.4-1.7-0.4s-1.2,0.1-1.7,0.4
			s-0.9,0.7-1.2,1.2c-0.3,0.5-0.4,1-0.4,1.6c0,0.6,0.1,1.2,0.4,1.7c0.3,0.5,0.7,0.9,1.2,1.2c0.5,0.3,1.1,0.4,1.7,0.4
			S556.1,1405.9,556.6,1405.6z"/>
		<path class="st3" d="M567.8,1403.4c0.3,0.3,0.4,0.8,0.4,1.3c0,0.7-0.3,1.3-0.8,1.7c-0.5,0.4-1.3,0.6-2.3,0.6h-3.8v-8.4h3.6
			c0.9,0,1.6,0.2,2.2,0.6s0.8,0.9,0.8,1.6c0,0.5-0.1,0.8-0.3,1.2c-0.2,0.3-0.5,0.6-1,0.7C567.1,1402.8,567.6,1403,567.8,1403.4z
			 M562.5,1402.3h2.3c0.6,0,1-0.1,1.3-0.3c0.3-0.2,0.5-0.6,0.5-1c0-0.4-0.2-0.8-0.5-1c-0.3-0.2-0.8-0.4-1.3-0.4h-2.3V1402.3z
			 M567.1,1404.6c0-0.5-0.2-0.8-0.5-1.1c-0.3-0.2-0.8-0.3-1.4-0.3h-2.6v2.8h2.6C566.4,1406.1,567.1,1405.6,567.1,1404.6z"/>
		<path class="st3" d="M571.8,1406.5c-0.7-0.4-1.2-0.9-1.6-1.5c-0.4-0.7-0.6-1.4-0.6-2.2c0-0.8,0.2-1.5,0.6-2.2
			c0.4-0.7,0.9-1.2,1.6-1.5c0.7-0.4,1.4-0.6,2.3-0.6c0.8,0,1.6,0.2,2.3,0.6c0.7,0.4,1.2,0.9,1.6,1.5c0.4,0.7,0.6,1.4,0.6,2.2
			c0,0.8-0.2,1.5-0.6,2.2c-0.4,0.7-0.9,1.2-1.6,1.5s-1.4,0.6-2.3,0.6C573.2,1407.1,572.5,1406.9,571.8,1406.5z M575.7,1405.6
			c0.5-0.3,0.9-0.7,1.2-1.2s0.4-1,0.4-1.7c0-0.6-0.1-1.2-0.4-1.6c-0.3-0.5-0.7-0.9-1.2-1.2s-1-0.4-1.7-0.4s-1.2,0.1-1.7,0.4
			s-0.9,0.7-1.2,1.2c-0.3,0.5-0.4,1-0.4,1.6c0,0.6,0.1,1.2,0.4,1.7c0.3,0.5,0.7,0.9,1.2,1.2c0.5,0.3,1.1,0.4,1.7,0.4
			S575.2,1405.9,575.7,1405.6z"/>
		<path class="st3" d="M586.6,1406v1h-6.1v-8.4h5.9v1h-4.7v2.6h4.2v1h-4.2v2.7H586.6z"/>
	</g>
</g>
</svg>
