<?xml version="1.0" encoding="utf-8"?>
<!-- Generator: Adobe Illustrator 23.0.2, SVG Export Plug-In . SVG Version: 6.00 Build 0)  -->
<svg version="1.1" id="Layer_1" xmlns="http://www.w3.org/2000/svg" xmlns:xlink="http://www.w3.org/1999/xlink" x="0px" y="0px"
	 viewBox="0 0 83 38.4" style="enable-background:new 0 0 83 38.4;" xml:space="preserve">
<style type="text/css">
	.st0{fill:#02B12A;}
	.st1{fill:#046241;}
	.st2{enable-background:new    ;}
	.st3{fill:#FFFFFF;}
</style>
<g id="i-sklad" transform="translate(-522 -1435)">
	<rect id="Rectangle_1" x="522" y="1435" class="st0" width="83" height="29"/>
	<path id="Path_34" class="st1" d="M590.4,1464v9.4l14.2-9.4H590.4z"/>
	<g class="st2">
		<path class="st3" d="M535.4,1446v2.9h-1.1v-1.8h-6.9l0,1.8h-1.1l0-2.9h0.4c0.5,0,0.9-0.5,1.1-1.3c0.2-0.8,0.3-1.9,0.4-3.4l0.1-2.7
			h5.9v7.4H535.4z M528.9,1444.3c-0.1,0.8-0.4,1.3-0.7,1.6h4.7v-6.3h-3.7l-0.1,1.8C529.2,1442.6,529.1,1443.6,528.9,1444.3z"/>
		<path class="st3" d="M538.5,1446.5c-0.7-0.4-1.2-0.9-1.6-1.5s-0.6-1.4-0.6-2.2c0-0.8,0.2-1.5,0.6-2.2c0.4-0.7,0.9-1.2,1.6-1.5
			c0.7-0.4,1.4-0.6,2.3-0.6c0.8,0,1.6,0.2,2.3,0.6c0.7,0.4,1.2,0.9,1.6,1.5c0.4,0.7,0.6,1.4,0.6,2.2c0,0.8-0.2,1.5-0.6,2.2
			c-0.4,0.7-0.9,1.2-1.6,1.5c-0.7,0.4-1.4,0.6-2.3,0.6C539.9,1447.1,539.2,1446.9,538.5,1446.5z M542.5,1445.6
			c0.5-0.3,0.9-0.7,1.2-1.2c0.3-0.5,0.4-1,0.4-1.7c0-0.6-0.1-1.2-0.4-1.6c-0.3-0.5-0.7-0.9-1.2-1.2s-1-0.4-1.7-0.4s-1.2,0.1-1.7,0.4
			s-0.9,0.7-1.2,1.2c-0.3,0.5-0.4,1-0.4,1.6c0,0.6,0.1,1.2,0.4,1.7c0.3,0.5,0.7,0.9,1.2,1.2c0.5,0.3,1.1,0.4,1.7,0.4
			S542,1445.9,542.5,1445.6z"/>
		<path class="st3" d="M548.7,1446.5c-0.7-0.4-1.2-0.9-1.6-1.5c-0.4-0.7-0.6-1.4-0.6-2.2c0-0.8,0.2-1.5,0.6-2.2
			c0.4-0.7,0.9-1.2,1.6-1.5c0.7-0.4,1.4-0.6,2.3-0.6c0.7,0,1.3,0.1,1.8,0.3s1,0.5,1.4,1l-0.8,0.8c-0.6-0.7-1.4-1-2.4-1
			c-0.6,0-1.2,0.1-1.7,0.4s-0.9,0.7-1.2,1.2c-0.3,0.5-0.4,1-0.4,1.6c0,0.6,0.1,1.2,0.4,1.7c0.3,0.5,0.7,0.9,1.2,1.2
			c0.5,0.3,1.1,0.4,1.7,0.4c0.9,0,1.7-0.3,2.4-1l0.8,0.8c-0.4,0.4-0.9,0.8-1.4,1c-0.5,0.2-1.2,0.3-1.8,0.3
			C550.1,1447.1,549.3,1446.9,548.7,1446.5z"/>
		<path class="st3" d="M561.5,1439.6h-2.9v7.4h-1.2v-7.4h-2.9v-1h6.9V1439.6z"/>
		<path class="st3" d="M568,1444.9h-4.5l-0.9,2.1h-1.2l3.8-8.4h1.2l3.8,8.4h-1.3L568,1444.9z M567.6,1443.9l-1.8-4.1l-1.8,4.1H567.6
			z"/>
		<path class="st3" d="M578.1,1443.4c0.3,0.3,0.4,0.8,0.4,1.3c0,0.7-0.3,1.3-0.8,1.7c-0.5,0.4-1.3,0.6-2.3,0.6h-3.8v-8.4h3.6
			c0.9,0,1.6,0.2,2.2,0.6s0.8,0.9,0.8,1.6c0,0.5-0.1,0.8-0.3,1.2c-0.2,0.3-0.5,0.6-1,0.7C577.4,1442.8,577.9,1443,578.1,1443.4z
			 M572.8,1442.3h2.3c0.6,0,1-0.1,1.3-0.3c0.3-0.2,0.5-0.6,0.5-1c0-0.4-0.2-0.8-0.5-1c-0.3-0.2-0.8-0.4-1.3-0.4h-2.3V1442.3z
			 M577.4,1444.6c0-0.5-0.2-0.8-0.5-1.1c-0.3-0.2-0.8-0.3-1.4-0.3h-2.6v2.8h2.6C576.7,1446.1,577.4,1445.6,577.4,1444.6z"/>
		<path class="st3" d="M580.6,1438.6h1.2v6.5l5-6.5h1.1v8.4h-1.2v-6.5l-5,6.5h-1.1V1438.6z"/>
		<path class="st3" d="M598.3,1447l0-6.1l-3,5.1h-0.6l-3-5.1v6.1h-1.2v-8.4h1l3.5,5.9l3.5-5.9h1l0,8.4H598.3z"/>
	</g>
	<g class="st2">
		<path class="st3" d="M537.5,1459.5c-0.7-0.4-1.2-0.9-1.6-1.5c-0.4-0.7-0.6-1.4-0.6-2.2c0-0.8,0.2-1.5,0.6-2.2
			c0.4-0.7,0.9-1.2,1.6-1.5c0.7-0.4,1.4-0.6,2.3-0.6c0.7,0,1.3,0.1,1.8,0.3s1,0.5,1.4,1l-0.8,0.8c-0.6-0.7-1.4-1-2.4-1
			c-0.6,0-1.2,0.1-1.7,0.4s-0.9,0.7-1.2,1.2c-0.3,0.5-0.4,1-0.4,1.6c0,0.6,0.1,1.2,0.4,1.7c0.3,0.5,0.7,0.9,1.2,1.2
			c0.5,0.3,1.1,0.4,1.7,0.4c0.9,0,1.7-0.3,2.4-1l0.8,0.8c-0.4,0.4-0.9,0.8-1.4,1c-0.5,0.2-1.2,0.3-1.8,0.3
			C538.9,1460.1,538.1,1459.9,537.5,1459.5z"/>
		<path class="st3" d="M550.7,1459v1h-6.1v-8.4h5.9v1h-4.7v2.6h4.2v1h-4.2v2.7H550.7z"/>
		<path class="st3" d="M558.1,1452.6h-4.3l0,7.4h-1.2v-8.4h5.5L558.1,1452.6z"/>
		<path class="st3" d="M559.9,1459.5c-0.7-0.4-1.2-0.9-1.6-1.5s-0.6-1.4-0.6-2.2c0-0.8,0.2-1.5,0.6-2.2c0.4-0.7,0.9-1.2,1.6-1.5
			c0.7-0.4,1.4-0.6,2.3-0.6c0.8,0,1.6,0.2,2.3,0.6c0.7,0.4,1.2,0.9,1.6,1.5c0.4,0.7,0.6,1.4,0.6,2.2c0,0.8-0.2,1.5-0.6,2.2
			s-0.9,1.2-1.6,1.5c-0.7,0.4-1.4,0.6-2.3,0.6C561.4,1460.1,560.6,1459.9,559.9,1459.5z M563.9,1458.6c0.5-0.3,0.9-0.7,1.2-1.2
			c0.3-0.5,0.4-1,0.4-1.7c0-0.6-0.1-1.2-0.4-1.6c-0.3-0.5-0.7-0.9-1.2-1.2s-1-0.4-1.7-0.4s-1.2,0.1-1.7,0.4s-0.9,0.7-1.2,1.2
			c-0.3,0.5-0.4,1-0.4,1.6c0,0.6,0.1,1.2,0.4,1.7c0.3,0.5,0.7,0.9,1.2,1.2c0.5,0.3,1.1,0.4,1.7,0.4S563.4,1458.9,563.9,1458.6z"/>
		<path class="st3" d="M576.4,1459v2.9h-1.1v-1.8h-6.9l0,1.8h-1.1l0-2.9h0.4c0.5,0,0.9-0.5,1.1-1.3s0.3-1.9,0.4-3.4l0.1-2.7h5.9v7.4
			H576.4z M569.9,1457.3c-0.1,0.8-0.4,1.3-0.7,1.6h4.7v-6.3h-3.7l-0.1,1.8C570.2,1455.6,570.1,1456.6,569.9,1457.3z"/>
		<path class="st3" d="M585.3,1451.6v8.4h-1.2v-3.7h-4.8v3.7H578v-8.4h1.2v3.6h4.8v-3.6H585.3z"/>
		<path class="st3" d="M594,1451.6v8.4h-1.2v-2.4h-2.3c-0.1,0-0.3,0-0.3,0l-1.7,2.5h-1.3l1.9-2.7c-0.6-0.2-1.1-0.5-1.4-1
			s-0.5-1-0.5-1.7c0-1,0.3-1.7,0.9-2.2c0.6-0.5,1.4-0.8,2.5-0.8H594z M589,1456c0.4,0.3,0.9,0.5,1.6,0.5h2.2v-3.9h-2.1
			c-0.7,0-1.3,0.2-1.7,0.5c-0.4,0.3-0.6,0.8-0.6,1.5C588.5,1455.2,588.7,1455.7,589,1456z"/>
	</g>
</g>
</svg>
