<svg xmlns="http://www.w3.org/2000/svg" width="27.529" height="27.381" viewBox="0 0 27.529 27.381"><g transform="translate(-1653 -299.054)"><path d="M902.738,132.807c-.768.768-1.775,1.007-2.248.534l-.886-.885,2.752-2.814.917.917C903.746,131.032,903.507,132.039,902.738,132.807Z" transform="translate(777.014 192.849)" fill="#fff"/><path d="M863.232,90.707,857.521,85a10.845,10.845,0,1,0-9.033,4.846,11.031,11.031,0,0,0,6.291-2.021l5.7,5.7Zm-7.117-11.564a7.627,7.627,0,1,1-7.627-7.627A7.627,7.627,0,0,1,856.115,79.143Z" transform="translate(815.36 230.905)" fill="#fff"/></g></svg>