<?xml version="1.0" encoding="utf-8"?>
<!-- Generator: Adobe Illustrator 23.0.1, SVG Export Plug-In . SVG Version: 6.00 Build 0)  -->
<svg version="1.1" id="Layer_1" xmlns="http://www.w3.org/2000/svg" xmlns:xlink="http://www.w3.org/1999/xlink" x="0px" y="0px"
	 viewBox="0 0 39.1 31.4" style="enable-background:new 0 0 39.1 31.4;" xml:space="preserve">
<style type="text/css">
	.st0{fill:#FFFFFF;}
</style>
<path class="st0" d="M3,31.4c-1.7,0-3-1.3-3-3s1.3-3,3-3h33.1c1.7,0,3,1.3,3,3s-1.3,3-3,3H3z M3,18.7c-1.7,0-3-1.3-3-3s1.3-3,3-3
	h33.1c1.7,0,3,1.3,3,3s-1.3,3-3,3H3z M3,6C1.3,6,0,4.7,0,3s1.3-3,3-3h33.1c1.7,0,3,1.3,3,3s-1.3,3-3,3H3z"/>
</svg>
