<svg xmlns="http://www.w3.org/2000/svg" width="39.111" height="20.877" viewBox="0 0 39.111 20.877"><path d="M29.846,17.823A3.053,3.053,0,1,1,32.9,20.877,3.054,3.054,0,0,1,29.846,17.823Zm.915,0A2.137,2.137,0,1,0,32.9,15.687,2.138,2.138,0,0,0,30.761,17.823Zm-21.633,0a3.053,3.053,0,1,1,3.053,3.054A3.054,3.054,0,0,1,9.128,17.823Zm.916,0a2.137,2.137,0,1,0,2.137-2.136A2.137,2.137,0,0,0,10.044,17.823ZM2,17.823a3.054,3.054,0,1,1,3.054,3.054A3.054,3.054,0,0,1,2,17.823Zm.917,0a2.137,2.137,0,1,0,2.137-2.136A2.136,2.136,0,0,0,2.915,17.823Zm14.189,0a1.555,1.555,0,0,1-1.238-1.109,3.9,3.9,0,0,0-3.686-2.738,3.835,3.835,0,0,0-2.9,1.322,1.1,1.1,0,0,1-1.376-.052A3.845,3.845,0,0,0,1.384,16.66c-.113.359-.271,1.163-.953.731A1.2,1.2,0,0,1,0,16.358V1.467A1.472,1.472,0,0,1,1.467,0H23.3a1.472,1.472,0,0,1,1.467,1.467V16.358A1.471,1.471,0,0,1,23.3,17.823Zm-7.768-7.13H10.4v1.055h1.683V10.687h2.271V9.353H12.092V8.369c.231,0,.455,0,.678,0a4.173,4.173,0,0,0,1.754-.326,2.37,2.37,0,0,0,1.266-1.29,3.259,3.259,0,0,0,.136-1.969,2.428,2.428,0,0,0-.974-1.511,3.187,3.187,0,0,0-1.81-.58c-.867-.021-1.735-.01-2.6-.017-.109,0-.141.024-.141.137.005,1.341,0,2.682,0,4.023v.151H9.338V8.373h1.054v.99H9.337Zm16.524,5.688V5.277c0-.807.359-1.5,1.075-1.5h2.377c2.731,0,4.688.681,6.723,5.741.979,2.432,2.584,2.04,2.7,5.633a.993.993,0,0,1,.377.792.929.929,0,0,1-.733.943,1.2,1.2,0,0,1-.858.634c-.249.03-.73-.182-.959-.863a3.845,3.845,0,0,0-7.409.293c-.064.273-.4.877-.949.859a8.413,8.413,0,0,0-.877.013H27.3A1.438,1.438,0,0,1,25.861,16.381Zm1.274-9.763v2A1.471,1.471,0,0,0,28.6,10.085h4.657c.807,0,1.127-.312,1.056-.821a4.383,4.383,0,0,0-.886-1.991C32.39,5.776,31.767,5.4,31.106,5.3a13.453,13.453,0,0,0-2.219-.148H28.42A1.326,1.326,0,0,0,27.135,6.617Zm-15.046.365V4.046c.008-.007.014-.016.019-.016a4.758,4.758,0,0,1,1.154.055A1.241,1.241,0,0,1,14.314,5.28a2.95,2.95,0,0,1-.031.733,1.071,1.071,0,0,1-.851.881,3.463,3.463,0,0,1-.9.093C12.386,6.987,12.237,6.984,12.089,6.982Z" transform="translate(0)" fill="#fff"/></svg>