<svg xmlns="http://www.w3.org/2000/svg" width="30.594" height="28.544" viewBox="0 0 30.594 28.544"><g transform="translate(-1472.939 -1088.136)"><path d="M209.233,228.642a1.718,1.718,0,0,0-2.059,1.289l-1.982,8.632-14.958-.138-3.6-14.415a1.726,1.726,0,0,0-.839-1.089l-3.272-1.8a1.718,1.718,0,1,0-1.655,3.01l2.615,1.438,3.671,14.682-1.977,1.561a.981.981,0,0,0-.373.771v2.453a.981.981,0,0,0,.968.982l2.77.04a1.96,1.96,0,1,0,2.713.038l12.957.182a1.962,1.962,0,1,0,3.1.044l1.689.024h.014a.981.981,0,0,0,.013-1.963l-22.263-.314v-1.01l1.633-1.289a1.667,1.667,0,0,0,.477.077l17.667.164h.016a1.718,1.718,0,0,0,1.674-1.333l2.292-9.979A1.718,1.718,0,0,0,209.233,228.642Z" transform="translate(1292.967 867.226)" fill="#fff"/><path d="M221.613,233.651h-1.6v-4.621a1.026,1.026,0,0,0-1.025-1.026h-3.076a1.025,1.025,0,0,0-1.025,1.026v4.621h-1.6c-.707,0-.94.463-.517,1.031l1.188,1.594,1.535,2.06,1.188,1.595a.906.906,0,0,0,1.535,0l1.188-1.595,1.535-2.06,1.188-1.594C222.552,234.115,222.319,233.651,221.613,233.651Z" transform="translate(1273.152 862.912)" fill="#fff"/></g></svg>