<svg xmlns="http://www.w3.org/2000/svg" width="24.117" height="30" viewBox="0 0 24.117 30">
  <path id="i-log-in" d="M214.678,545.038h-.715V541.8a8.7,8.7,0,1,0-17.393,0v3.234h-.714a2.658,2.658,0,0,0-2.648,2.668v12.662a2.659,2.659,0,0,0,2.648,2.669h18.823a2.659,2.659,0,0,0,2.646-2.669V547.706A2.658,2.658,0,0,0,214.678,545.038Zm-8.3,9.172v1.656a.446.446,0,0,1-.444.448H204.6a.446.446,0,0,1-.444-.448V554.21a2.123,2.123,0,1,1,2.218,0Zm3.775-9.172h-9.767V541.8a4.884,4.884,0,1,1,9.767,0Z" transform="translate(-193.208 -533.037)" fill="#fff"/>
</svg>
