<svg xmlns="http://www.w3.org/2000/svg" width="23.887" height="30" viewBox="0 0 23.887 30">
  <g id="i-rega" transform="translate(-1366 -10)">
    <path id="Path_17" data-name="Path 17" d="M1126.107,873.4c-.078.071-.158.141-.238.21s-.164.139-.248.208q-.259.207-.533.4l-3.763,7.749-.75-4.462,1.113-1.793q-.2.045-.409.081a9.376,9.376,0,0,1-1.071.128c-.2.013-.4.022-.6.022a9.59,9.59,0,0,1-2.243-.268l1.13,1.832-.705,4.542-4.168-8.211q-.287-.23-.558-.481l-.076.066c-5.58,4.838-5.5,13.3-5.5,13.662l.005.3h23.881l-.012-.318C1130.967,877.284,1127.065,874.05,1126.107,873.4Z" transform="translate(258.511 -847.383)" fill="#fff"/>
    <path id="Path_18" data-name="Path 18" d="M1123.889,835.607a8.986,8.986,0,1,0,8.957,8.985A8.981,8.981,0,0,0,1123.889,835.607Z" transform="translate(254.23 -825.607)" fill="#fff"/>
  </g>
</svg>
