<svg xmlns="http://www.w3.org/2000/svg" width="33.567" height="30" viewBox="0 0 33.567 30">
  <g id="i-question" transform="translate(-1065 -10)">
    <path id="i-question-2" data-name="i-question" d="M848.738,368.928c-9.269,0-16.783,5.25-16.783,11.726,0,4.925,4.347,9.141,10.5,10.878l-2.759,7.4,10.133-6.572c8.759-.393,15.691-5.482,15.691-11.7C865.522,374.178,858.007,368.928,848.738,368.928Zm1.779,19.1a2.383,2.383,0,0,1-3.207,0,2.015,2.015,0,0,1-.644-1.51,1.962,1.962,0,0,1,.632-1.487,2.484,2.484,0,0,1,3.231,0,1.961,1.961,0,0,1,.632,1.487A2.018,2.018,0,0,1,850.517,388.025Zm3.768-10.218a4.476,4.476,0,0,1-.772,1.229q-.457.5-1.182,1.158a9.843,9.843,0,0,0-1.264,1.3,2.054,2.054,0,0,0-.4,1.276h-3.535a3.459,3.459,0,0,1,.55-2.013,10.75,10.75,0,0,1,1.6-1.756,9.34,9.34,0,0,0,1.135-1.182,1.758,1.758,0,0,0,.363-1.089,1.608,1.608,0,0,0-.691-1.37,3.055,3.055,0,0,0-1.837-.5,4.08,4.08,0,0,0-1.955.457,4.161,4.161,0,0,0-1.44,1.276l-2.832-1.662a6.562,6.562,0,0,1,2.657-2.317,8.93,8.93,0,0,1,3.968-.82,7.354,7.354,0,0,1,4.319,1.147,3.679,3.679,0,0,1,1.627,3.184A4.185,4.185,0,0,1,854.286,377.807Z" transform="translate(233.045 -358.928)" fill="#fff"/>
  </g>
</svg>
