<?xml version="1.0" encoding="utf-8"?>
<!-- Generator: Adobe Illustrator 23.0.2, SVG Export Plug-In . SVG Version: 6.00 Build 0)  -->
<svg version="1.1" id="Layer_1" xmlns="http://www.w3.org/2000/svg" xmlns:xlink="http://www.w3.org/1999/xlink" x="0px" y="0px"
	 viewBox="0 0 58.2 58.1" style="enable-background:new 0 0 58.2 58.1;" xml:space="preserve">
<style type="text/css">
	.st0{fill:#7695A8;}
</style>
<path class="st0" d="M31.5,58.1L31.5,58.1l0-22.9h6.1v-6.6h-6.1v-2.1c0-1.6,0.2-2.6,0.8-3.2c0.7-0.6,1.6-1,2.5-0.9
	c1.3,0,2.5,0.2,3.8,0.5l1.1-5.8c-2.2-0.7-4.5-1.1-6.8-1c-2-0.1-4,0.3-5.7,1.2c-1.4,0.6-2.5,1.7-3.1,3.1c-0.7,1.9-1,3.9-0.9,5.8v2.3
	h-4.6v6.6h4.6v22.8"/>
</svg>
