<?xml version="1.0" encoding="utf-8"?>
<!-- Generator: Adobe Illustrator 23.0.2, SVG Export Plug-In . SVG Version: 6.00 Build 0)  -->
<svg version="1.1" id="Layer_1" xmlns="http://www.w3.org/2000/svg" xmlns:xlink="http://www.w3.org/1999/xlink" x="0px" y="0px"
	 viewBox="0 0 58.2 58.2" style="enable-background:new 0 0 58.2 58.2;" xml:space="preserve">
<style type="text/css">
	.st0{fill:#FFFFFF;}
</style>
<path class="st0" d="M37.2,42.1c-1.3-0.5-4.7-5-5.6-4.9c-2,0.4-1.3,4.6-1.9,4.9c-0.9,0.4-3.6,0.3-4.7,0.2c-5.6-0.9-8.9-4.7-12-9.6
	C9.3,26.9,7,22.4,8,21.9c1-0.6,4-0.5,6.9-0.4c0.9,0,3.5,6.4,4.1,7.5c2.7,4.3,3.5,1.1,3.6,0.7c0.7-7.7-1.2-7.3-2.2-7.5
	c0.8-2.5,6.6-2.1,6.6-2.1c0.9,0.2,1.8,0.5,2.6,0.9c0.3,0.2,0.6,0.8,0.6,2.8c-0.1,3-0.4,7.1,0.9,7.1c1,0,2.6-2.4,3.9-4.9
	c1.2-2.2,2-4.3,2.4-4.5c1.4-0.2,2.7-0.2,4.1-0.2c1.8,0,3.6,0,4.1,0.4c1,0.8-0.7,3.4-2.2,5.6c-1.3,1.8-3.7,4.2-3.6,5.4
	c0.2,1.8,6.5,5.5,6,8.4c-0.2,1.3-2.4,1.1-4.3,1.1c-0.3,0-0.6,0-0.8,0C39.5,42.6,38.3,42.4,37.2,42.1z"/>
</svg>
