<?xml version="1.0" encoding="utf-8"?>
<!-- Generator: Adobe Illustrator 23.0.2, SVG Export Plug-In . SVG Version: 6.00 Build 0)  -->
<svg version="1.1" id="Layer_1" xmlns="http://www.w3.org/2000/svg" xmlns:xlink="http://www.w3.org/1999/xlink" x="0px" y="0px"
	 viewBox="0 0 58.1 58.2" style="enable-background:new 0 0 58.1 58.2;" xml:space="preserve">
<style type="text/css">
	.st0{fill:#7695A8;}
</style>
<path class="st0" d="M18,44c-2.5,0-3.8-1.4-3.8-3.9v-22c0-2.6,1.3-4,4-4h22c2.6,0,4,1.4,4,3.9v22c0,2.5-1.4,3.9-4,3.9L18,44z
	 M17.5,27.9c0.1,3.6,0,7.3,0,10.9c0,1.4,0.4,1.8,1.8,1.8h19.6c1.4,0,1.8-0.4,1.8-1.8V28.7c0-2.1,0-2.1-2.1-2c-0.5,0-0.6,0.1-0.5,0.6
	c0.3,1.4,0.2,2.9-0.2,4.3c-1.4,4.9-6.5,7.7-11.3,6.3c-4.3-1.2-7.1-5.4-6.6-9.8c0.2-1.3,0.1-1.3-1.2-1.4h-0.1
	C17.8,26.7,17.5,27,17.5,27.9z M23.3,29c0,3.2,2.5,5.8,5.7,5.8s5.8-2.5,5.8-5.7s-2.5-5.8-5.7-5.8c0,0,0,0,0,0
	C25.9,23.3,23.4,25.9,23.3,29L23.3,29z M34.8,20.5c0,2.9,0,2.9,2.9,2.9c2.9,0,2.9,0,2.9-2.9c0-3,0-3-3-3
	C34.8,17.5,34.8,17.5,34.8,20.5L34.8,20.5z"/>
</svg>
