<svg xmlns="http://www.w3.org/2000/svg" width="54.205" height="54.205" viewBox="0 0 54.205 54.205"><g transform="translate(-542 -799)"><path d="M20.807,23.236a1.705,1.705,0,0,1,.376-1.06L9.858,22.017a1.719,1.719,0,1,1-2.371-.034l-2.422-.035a.858.858,0,0,1-.846-.858V18.946a.858.858,0,0,1,.327-.674l1.728-1.364L3.064,4.074.778,2.817A1.5,1.5,0,0,1,2.226.186l2.86,1.572a1.508,1.508,0,0,1,.733.952l3.151,12.6,13.075.12,1.733-7.546a1.5,1.5,0,0,1,2.927.672l-2,8.723a1.5,1.5,0,0,1-1.463,1.166h-.015L7.78,18.3a1.444,1.444,0,0,1-.417-.067L5.935,19.362v.883l19.46.274a.858.858,0,0,1-.011,1.715h-.012l-1.477-.021a1.713,1.713,0,1,1-3.087,1.022Zm-6.038-10.38-1.038-1.394-1.342-1.8L11.351,8.268c-.369-.5-.166-.9.452-.9h1.4V3.328a.9.9,0,0,1,.9-.9h2.689a.9.9,0,0,1,.9.9V7.367h1.4c.617,0,.821.405.453.9L18.492,9.661l-1.342,1.8-1.038,1.394a.792.792,0,0,1-1.342,0Z" transform="translate(553.88 815.238)" fill="#cd0006" stroke="rgba(0,0,0,0)" stroke-width="1"/><g transform="translate(542 799)" fill="none" stroke="#cd0006" stroke-width="2"><circle cx="27.103" cy="27.103" r="27.103" stroke="none"/><circle cx="27.103" cy="27.103" r="26.103" fill="none"/></g></g></svg>