<svg xmlns="http://www.w3.org/2000/svg" width="255.818" height="138.297" viewBox="0 0 255.818 138.297"><g transform="translate(-72 -72.553)"><g transform="translate(-120.739 -8.817)"><g transform="translate(192.959 208.398)"><path d="M199.883,195.46h-4.512v-.317q1.427,0,1.427-.988v-8.781h-1.183a5.3,5.3,0,0,0-1.146.1,1.236,1.236,0,0,0-.7.537,4.211,4.211,0,0,0-.488,1.439h-.366l.1-2.768h9.2l.1,2.768h-.4a3.8,3.8,0,0,0-.463-1.427,1.32,1.32,0,0,0-.7-.549,5.426,5.426,0,0,0-1.159-.1h-1.159v8.781q0,.988,1.427.988v.317Z" transform="translate(-192.92 -184.412)"/><path d="M212.254,190.122a6.21,6.21,0,0,0,.951,3.683,2.978,2.978,0,0,0,2.524,1.329,3.146,3.146,0,0,0,2.049-.854,4.133,4.133,0,0,0,1.1-1.866,7.95,7.95,0,0,0,.317-2.293,8.541,8.541,0,0,0-.354-2.5,3.943,3.943,0,0,0-1.134-1.841,2.884,2.884,0,0,0-1.988-.7q-3.457.22-3.463,5.037m8.8,0a6.1,6.1,0,0,1-.378,2.2,5.47,5.47,0,0,1-1.073,1.78,4.967,4.967,0,0,1-1.7,1.2,5.532,5.532,0,0,1-2.183.427,5.31,5.31,0,0,1-2.659-.7,5.2,5.2,0,0,1-1.951-1.963,5.8,5.8,0,0,1-.719-2.939,6.212,6.212,0,0,1,.659-2.878,4.9,4.9,0,0,1,1.878-2.012,5.3,5.3,0,0,1,2.793-.732,5.191,5.191,0,0,1,2.683.707,5.037,5.037,0,0,1,1.927,1.988,6.082,6.082,0,0,1,.719,2.927" transform="translate(-189.083 -184.451)"/><path d="M235.883,195.46h-4.512v-.317q1.427,0,1.427-.988v-8.781h-1.183a5.379,5.379,0,0,0-1.146.1,1.237,1.237,0,0,0-.7.537,3.964,3.964,0,0,0-.488,1.439h-.366l.1-2.768h9.2l.1,2.768h-.4a3.8,3.8,0,0,0-.463-1.427,1.237,1.237,0,0,0-.7-.549,5.378,5.378,0,0,0-1.146-.1h-1.159v8.781q0,.988,1.427.988v.317Z" transform="translate(-185.017 -184.412)"/><path d="M249.44,191.3h3.744l-1.89-4.463Zm6.4,2.293a6.389,6.389,0,0,0,.659,1.183,1.062,1.062,0,0,0,.89.39v.317h-4.146v-.317a2.624,2.624,0,0,0,.878-.134.412.412,0,0,0,.256-.4,4.545,4.545,0,0,0-.39-1.256l-.585-1.415h-4.256c-.037.122-.146.4-.329.829s-.317.78-.4,1.037a2.173,2.173,0,0,0-.134.671c0,.439.366.671,1.11.671v.317H246.16v-.317a1.333,1.333,0,0,0,1.061-.659,18,18,0,0,0,1.037-2.171l3.3-7.841h.317Z" transform="translate(-181.233 -184.451)"/><path d="M264.86,195.458v-.317q1.427,0,1.427-.988v-8.159q0-.988-1.427-.988v-.317h4.512v.317q-1.427,0-1.427.988v8.159c0,.427.537.634,1.622.634a13.3,13.3,0,0,0,2.1-.122,2.68,2.68,0,0,0,1.329-.585,3.455,3.455,0,0,0,.976-1.463h.427l-.793,2.829H264.86Z" transform="translate(-177.128 -184.409)"/><path d="M295.66,195.458v-.317q1.427,0,1.427-.988v-8.159q0-.988-1.427-.988v-.317h8.646v2.317h-.39c-.073-.72-.28-1.171-.634-1.366a3.63,3.63,0,0,0-1.7-.281H299.44c-.476,0-.719.207-.719.634v3.5h2.146a2.744,2.744,0,0,0,1.488-.341,1.354,1.354,0,0,0,.536-1.232h.341v3.829h-.341a1.341,1.341,0,0,0-.536-1.232,2.716,2.716,0,0,0-1.488-.341h-2.146v4c0,.658.488.988,1.475.988v.317H295.66Z" transform="translate(-170.367 -184.409)"/><path d="M315.516,194.153c0,.659.537.988,1.6.988v.317H312.26v-.317c1.073,0,1.6-.329,1.6-.988v-8.159c0-.659-.537-.988-1.6-.988v-.317h4.854v.317c-1.073,0-1.6.329-1.6.988Z" transform="translate(-166.723 -184.409)"/><path d="M326.13,192.217h.366a4.777,4.777,0,0,0,1.281,2.061,2.959,2.959,0,0,0,2.1.829,1.877,1.877,0,0,0,1.366-.524,1.758,1.758,0,0,0,.537-1.293,2.334,2.334,0,0,0-.073-.585,2.2,2.2,0,0,0-.793-1.171,19.937,19.937,0,0,0-1.841-1.171,7.578,7.578,0,0,1-1.854-1.4,2.494,2.494,0,0,1-.6-1.732,2.552,2.552,0,0,1,.829-1.951,2.888,2.888,0,0,1,2.061-.756,4.271,4.271,0,0,1,1.451.268,4.79,4.79,0,0,0,.89.268q.366,0,.549-.549h.341l.378,3.451h-.427a4.469,4.469,0,0,0-.6-1.4,3.24,3.24,0,0,0-1.024-1.012,2.516,2.516,0,0,0-1.329-.378,1.805,1.805,0,0,0-1.232.4,1.406,1.406,0,0,0-.463,1.146c0,.683.573,1.366,1.732,2.049,1.073.659,1.817,1.11,2.219,1.39a4.184,4.184,0,0,1,1.037,1.037,2.663,2.663,0,0,1,.439,1.549,2.782,2.782,0,0,1-.927,2.085,3.447,3.447,0,0,1-2.5.89,4.011,4.011,0,0,1-.9-.1c-.256-.061-.561-.146-.9-.256a2.717,2.717,0,0,0-.732-.159c-.293,0-.451.171-.488.512h-.341Z" transform="translate(-163.678 -184.449)"/><path d="M350.389,189.617v-3.622c0-.659-.488-.988-1.451-.988v-.317h4.537v.317q-1.427,0-1.427.988v8.159q0,.988,1.427.988v.317h-4.537v-.317c.976,0,1.451-.329,1.451-.988v-3.866H345.45v3.866q0,.988,1.427.988v.317H342.34v-.317q1.427,0,1.427-.988v-8.159q0-.988-1.427-.988v-.317h4.536v.317q-1.427,0-1.427.988v3.622Z" transform="translate(-160.119 -184.409)"/><path d="M364.326,194.153c0,.659.537.988,1.6.988v.317H361.07v-.317c1.073,0,1.6-.329,1.6-.988v-8.159c0-.659-.537-.988-1.6-.988v-.317h4.854v.317c-1.073,0-1.6.329-1.6.988Z" transform="translate(-156.008 -184.409)"/><path d="M384.306,195.676h-.244l-7.22-8.951v7.427q0,.988,1.573.988v.317H374.55v-.317q1.573,0,1.573-.988V185.9l-.122-.171a3.006,3.006,0,0,0-.658-.585,1.778,1.778,0,0,0-.793-.122V184.7h2.793l6.268,7.841V186q0-.988-1.573-.988V184.7H385.9v.317q-1.573,0-1.573.988v9.671Z" transform="translate(-153.049 -184.407)"/><path d="M403.2,187.96h-.378c-.671-1.878-1.866-2.817-3.6-2.817a3.438,3.438,0,0,0-2.171.671,3.949,3.949,0,0,0-1.293,1.829,7.632,7.632,0,0,0-.415,2.622,5.384,5.384,0,0,0,1.085,3.4,3.614,3.614,0,0,0,3.037,1.378,4.336,4.336,0,0,0,1.829-.341.907.907,0,0,0,.4-.317,1.455,1.455,0,0,0,.061-.5V191.46a2,2,0,0,0-.244-1.134c-.159-.219-.561-.317-1.2-.317v-.329h4.171v.329q-.732,0-.951.329a2.127,2.127,0,0,0-.22,1.122v3.085a9.564,9.564,0,0,1-1.963.8,7.389,7.389,0,0,1-2.134.366,6.419,6.419,0,0,1-2.768-.622,5.046,5.046,0,0,1-2.159-1.89,5.41,5.41,0,0,1-.829-3.073,5.861,5.861,0,0,1,.72-2.878,5.23,5.23,0,0,1,1.988-2.037,5.67,5.67,0,0,1,2.866-.744,6.789,6.789,0,0,1,1.78.268,7.259,7.259,0,0,0,1.207.268.715.715,0,0,0,.7-.549h.341Z" transform="translate(-148.895 -184.46)"/></g><path d="M315.414,138.7l25.061-14.659L311.3,81.37,282.39,124.126l17.854,10.3-6.707-9.976,17.781-25.988,18.024,25.646Z" transform="translate(19.68 0)" fill="#bf0202"/><path d="M277.034,124.114l18.025-25.646,17.781,25.988-6.707,9.976,17.854-10.3L295.071,81.37,265.9,124.041,290.961,138.7Z" transform="translate(16.06 0)"/><path d="M327.68,166.751l7.146-17.28,7.341,17.28Zm-12.7,14.976v1.232H327.5v-1.232c-2.866,0-4.3-.866-4.3-2.585a7.835,7.835,0,0,1,.525-2.585c.354-1,.878-2.329,1.573-4.012s1.122-2.768,1.256-3.232h16.488l2.28,5.451a16.883,16.883,0,0,1,1.537,4.866,1.609,1.609,0,0,1-.976,1.573,9.516,9.516,0,0,1-3.4.524v1.232H358.5v-1.232a4.074,4.074,0,0,1-3.463-1.512,24.7,24.7,0,0,1-2.549-4.585l-15.378-35.22h-1.232l-12.793,30.354a67.264,67.264,0,0,1-4.012,8.4,5.059,5.059,0,0,1-4.085,2.561m-86.147,1.232h17.537v-1.232q-5.524,0-5.524-3.817l-.1-31.585q0-3.823,5.524-3.817v-1.232H233.789l-13.927,31.768L205.35,141.276H192.838v1.232q6.018,0,6.012,3.817V177.91q0,3.823-6.11,3.817v1.232h14.976v-1.232q-6.11,0-6.11-3.817v-29.3l15.744,34.354h.866l16.122-35.878V177.9q0,3.823-5.524,3.817v1.244Zm19.829,0H267.46v-1.232q-6.2,0-6.2-3.817V146.325q0-3.823,6.2-3.817v-1.232H248.667v1.232q6.2,0,6.2,3.817V177.91q0,3.823-6.2,3.817Zm39.012-41.7H269.74V142.5q5.726,0,5.732,3.817V177.9q0,3.823-5.732,3.817v1.232H287.5v-1.232q-5.634,0-5.634-3.817V164.337l1.634-1.329,6.11,6.012a54.414,54.414,0,0,1,8.4,9.927,2.448,2.448,0,0,1,.378,1.232c0,1.024-1.463,1.537-4.378,1.537v1.232H313.18v-1.232a7.6,7.6,0,0,1-3.793-.963,12.7,12.7,0,0,1-2.915-2.232c-.8-.854-2.037-2.232-3.72-4.159l-4.2-4.659-9.927-10.512L300,147.934a29.1,29.1,0,0,1,4.939-4.146,9.658,9.658,0,0,1,5.171-1.3v-1.232H293.594v1.232a16.531,16.531,0,0,1,3.232.415,1.524,1.524,0,0,1,1.085,1.683c0,.866-1,2.341-2.988,4.427s-4.22,4.219-6.671,6.4-4.585,4.085-6.378,5.683V146.3q0-3.823,5.829-3.817v-1.22Zm108.415,21.085q0,8.506-5.207,13.268t-15.134,4.768c-1.976-.134-2.963-1.159-2.963-3.049V146.812c0-1.476.207-2.366.61-2.7a5.591,5.591,0,0,1,2.939-.476,23.864,23.864,0,0,1,10.329,2.122,15.661,15.661,0,0,1,6.951,6.317,19.765,19.765,0,0,1,2.476,10.268m4.037,10.988a23.294,23.294,0,0,0-.256-22.756,18.338,18.338,0,0,0-8.915-7.024,37.838,37.838,0,0,0-13.939-2.293H360.79V142.5q5.543,0,5.549,3.817V177.9q0,3.823-5.549,3.817v1.232h16.793a34.989,34.989,0,0,0,14.025-2.488,18.1,18.1,0,0,0,8.524-7.122m41.086-11.171a31.438,31.438,0,0,1-1.244,8.854,16.434,16.434,0,0,1-4.256,7.22,12.126,12.126,0,0,1-7.939,3.3,11.5,11.5,0,0,1-9.756-5.11c-2.463-3.4-3.707-8.171-3.707-14.268q0-18.64,13.464-19.476a11.132,11.132,0,0,1,7.7,2.7,15.241,15.241,0,0,1,4.378,7.11,32.344,32.344,0,0,1,1.366,9.671m7.183,0a23.017,23.017,0,0,0-2.744-11.3,19.655,19.655,0,0,0-7.463-7.707,20.3,20.3,0,0,0-10.4-2.732,20.584,20.584,0,0,0-10.817,2.817,18.935,18.935,0,0,0-7.244,7.793,24.153,24.153,0,0,0-2.549,11.146,22.548,22.548,0,0,0,2.793,11.354,19.8,19.8,0,0,0,7.549,7.622,20.537,20.537,0,0,0,10.268,2.7,21.028,21.028,0,0,0,8.451-1.659,19.074,19.074,0,0,0,6.561-4.61,20.669,20.669,0,0,0,4.159-6.89,25.017,25.017,0,0,0,1.439-8.524" transform="translate(0 13.967)"/></g></g></svg>