<svg xmlns="http://www.w3.org/2000/svg" width="219.934" height="118.627" viewBox="0 0 219.934 118.627"><path d="M2185.1,77.237h-.209l-6.179-7.661v6.356q0,.845,1.346.845v.271h-3.308v-.271q1.346,0,1.346-.845V68.866l-.1-.146a2.514,2.514,0,0,0-.564-.5,1.512,1.512,0,0,0-.678-.105v-.271h2.39l5.364,6.71V68.96q0-.845-1.346-.845v-.271h3.309v.271q-1.346,0-1.346.845v8.277Zm-56.307-.084c-.219-.053-.48-.126-.772-.22a2.315,2.315,0,0,0-.626-.135c-.25,0-.386.146-.417.439h-.292l-.47-3h.313a4.1,4.1,0,0,0,1.1,1.763,2.532,2.532,0,0,0,1.795.71,1.6,1.6,0,0,0,1.168-.449,1.5,1.5,0,0,0,.46-1.107,2.011,2.011,0,0,0-.062-.5,1.883,1.883,0,0,0-.679-1,17.023,17.023,0,0,0-1.575-1,6.5,6.5,0,0,1-1.586-1.2,2.131,2.131,0,0,1-.512-1.482,2.185,2.185,0,0,1,.71-1.67,2.474,2.474,0,0,1,1.764-.646,3.647,3.647,0,0,1,1.242.229,4.05,4.05,0,0,0,.762.229c.208,0,.366-.156.47-.47h.292l.324,2.954h-.365a3.83,3.83,0,0,0-.512-1.2,2.765,2.765,0,0,0-.876-.866,2.159,2.159,0,0,0-1.138-.324,1.545,1.545,0,0,0-1.054.345,1.2,1.2,0,0,0-.4.982c0,.584.49,1.169,1.482,1.753.919.564,1.555.95,1.9,1.19a3.581,3.581,0,0,1,.888.887,2.285,2.285,0,0,1,.375,1.325,2.378,2.378,0,0,1-.793,1.785,2.947,2.947,0,0,1-2.139.763A3.461,3.461,0,0,1,2128.795,77.154Zm-121.078-.512a4.446,4.446,0,0,1-1.669-1.68,4.957,4.957,0,0,1-.616-2.515,5.319,5.319,0,0,1,.564-2.464,4.2,4.2,0,0,1,1.607-1.722,4.54,4.54,0,0,1,2.39-.627,4.437,4.437,0,0,1,2.3.606,4.316,4.316,0,0,1,1.649,1.7,5.5,5.5,0,0,1,.292,4.384,4.7,4.7,0,0,1-.919,1.524,4.264,4.264,0,0,1-1.451,1.023,4.74,4.74,0,0,1-1.868.365A4.55,4.55,0,0,1,2007.717,76.642Zm-.7-4.195a5.319,5.319,0,0,0,.813,3.151,2.55,2.55,0,0,0,2.161,1.138,2.688,2.688,0,0,0,1.753-.731,3.53,3.53,0,0,0,.939-1.6,6.8,6.8,0,0,0,.272-1.961,7.309,7.309,0,0,0-.3-2.14,3.377,3.377,0,0,0-.97-1.576,2.47,2.47,0,0,0-1.7-.595Q2007.023,68.324,2007.018,72.447Zm192.037,4.248a4.326,4.326,0,0,1-1.846-1.618,4.622,4.622,0,0,1-.71-2.63,5.013,5.013,0,0,1,.616-2.464,4.468,4.468,0,0,1,1.7-1.742,4.844,4.844,0,0,1,2.453-.637,5.83,5.83,0,0,1,1.523.229,6.2,6.2,0,0,0,1.033.23.612.612,0,0,0,.594-.47h.293l.115,3h-.324a3.129,3.129,0,0,0-3.079-2.411,2.941,2.941,0,0,0-1.857.574,3.379,3.379,0,0,0-1.106,1.566,6.517,6.517,0,0,0-.355,2.244,4.614,4.614,0,0,0,.929,2.912,3.1,3.1,0,0,0,2.6,1.179,3.709,3.709,0,0,0,1.565-.292.771.771,0,0,0,.345-.271,1.246,1.246,0,0,0,.052-.427V73.584a1.709,1.709,0,0,0-.209-.971c-.135-.188-.48-.271-1.022-.271V72.06h3.57v.282q-.628,0-.814.282a1.825,1.825,0,0,0-.188.961v2.64a8.214,8.214,0,0,1-1.681.689,6.324,6.324,0,0,1-1.827.313A5.493,5.493,0,0,1,2199.055,76.694Zm-104.64.376v-.292q1.222,0,1.221-.845V68.95q0-.845-1.221-.845v-.271h7.4v1.984h-.335c-.062-.616-.239-1-.542-1.169a3.107,3.107,0,0,0-1.451-.24h-1.836c-.407,0-.616.177-.616.542v3h1.837a2.348,2.348,0,0,0,1.273-.292,1.16,1.16,0,0,0,.459-1.054h.292v3.277h-.292a1.147,1.147,0,0,0-.459-1.054,2.316,2.316,0,0,0-1.273-.293h-1.837v3.424c0,.564.418.845,1.263.845v.271Zm68.268-.021v-.271c.919,0,1.368-.282,1.368-.845V68.95c0-.564-.459-.845-1.368-.845v-.271h4.154V68.1c-.919,0-1.367.282-1.367.845v6.983c0,.564.459.845,1.367.845v.271Zm-13.9,0v-.271c.835,0,1.242-.282,1.242-.845V72.623H2145.8v3.309q0,.845,1.221.845v.271h-3.882v-.271q1.221,0,1.221-.845V68.95q0-.845-1.221-.845v-.271h3.882V68.1q-1.22,0-1.221.845v3.1h4.227v-3.1c0-.564-.417-.845-1.242-.845v-.271h3.882V68.1q-1.22,0-1.221.845v6.983q0,.845,1.221.845v.271Zm-37.04,0v-.271c.918,0,1.367-.282,1.367-.845V68.95c0-.564-.458-.845-1.367-.845v-.271h4.154V68.1c-.919,0-1.368.282-1.368.845v6.983c0,.564.459.845,1.368.845v.271Zm-49.471-.271q1.222,0,1.222-.845V68.95q0-.845-1.222-.845v-.271h3.862V68.1q-1.221,0-1.221.845v6.983c0,.365.459.542,1.388.542a11.356,11.356,0,0,0,1.795-.1,2.28,2.28,0,0,0,1.137-.5,2.946,2.946,0,0,0,.835-1.252h.365l-.678,2.421h-7.484v-.26Zm-31.561.271h.011Zm-3.851,0v-.271q1.222,0,1.221-.845V68.418h-1.013a4.576,4.576,0,0,0-.981.084,1.051,1.051,0,0,0-.594.458,3.383,3.383,0,0,0-.418,1.232h-.313l.084-2.37h7.869l.084,2.37h-.344a3.246,3.246,0,0,0-.4-1.221,1.049,1.049,0,0,0-.594-.47,4.578,4.578,0,0,0-.981-.084h-.992v7.515q0,.845,1.221.845v.271Zm-33.732,0h.021Zm-3.841,0v-.271q1.222,0,1.221-.845V68.418h-1.013a4.507,4.507,0,0,0-.981.084,1.051,1.051,0,0,0-.594.458,3.593,3.593,0,0,0-.418,1.232h-.313l.084-2.37h7.869l.083,2.37h-.344a3.242,3.242,0,0,0-.4-1.221,1.123,1.123,0,0,0-.595-.47,4.616,4.616,0,0,0-.991-.084h-.992v7.515q0,.845,1.221.845v.271Zm59.532-.011v-.271a2.257,2.257,0,0,0,.751-.116.352.352,0,0,0,.219-.344,3.9,3.9,0,0,0-.333-1.076l-.5-1.211h-3.642c-.031.1-.125.345-.282.71s-.271.668-.344.887a1.856,1.856,0,0,0-.115.574c0,.376.313.575.95.575v.271h-2.766v-.271a1.144,1.144,0,0,0,.908-.564,15.546,15.546,0,0,0,.887-1.858l2.828-6.711h.272l3.392,7.786a5.519,5.519,0,0,0,.563,1.013.911.911,0,0,0,.762.334v.271Zm-3.257-3.58h3.2l-1.618-3.819Zm133.811-16.97a16.947,16.947,0,0,1-6.46-6.524,19.3,19.3,0,0,1-2.39-9.716,20.664,20.664,0,0,1,2.181-9.54,16.2,16.2,0,0,1,6.2-6.669,17.612,17.612,0,0,1,9.257-2.41,17.384,17.384,0,0,1,8.9,2.337,16.817,16.817,0,0,1,6.387,6.6,19.7,19.7,0,0,1,2.348,9.675,21.4,21.4,0,0,1-1.232,7.295,17.681,17.681,0,0,1-3.559,5.9,16.311,16.311,0,0,1-5.615,3.945,18,18,0,0,1-7.233,1.419A17.578,17.578,0,0,1,2179.372,56.489Zm-2.746-16.25c0,5.218,1.065,9.3,3.173,12.211a9.842,9.842,0,0,0,8.35,4.373,10.374,10.374,0,0,0,6.794-2.828,14.057,14.057,0,0,0,3.643-6.179,26.9,26.9,0,0,0,1.065-7.577,27.687,27.687,0,0,0-1.169-8.276,13.035,13.035,0,0,0-3.747-6.085,9.522,9.522,0,0,0-6.585-2.307Q2176.628,24.29,2176.626,40.239Zm-61.483,17.794V56.979a8.146,8.146,0,0,0,2.912-.449,1.377,1.377,0,0,0,.835-1.346,14.45,14.45,0,0,0-1.315-4.165l-1.951-4.665h-14.111c-.115.4-.48,1.325-1.076,2.765s-1.043,2.578-1.346,3.434a6.717,6.717,0,0,0-.449,2.212c0,1.472,1.231,2.213,3.684,2.213v1.054h-10.708V56.979a4.332,4.332,0,0,0,3.5-2.191,57.609,57.609,0,0,0,3.433-7.191L2109.5,21.619h1.054l13.161,30.142a21.162,21.162,0,0,0,2.181,3.924,3.489,3.489,0,0,0,2.965,1.294v1.054Zm-12.66-13.871h12.4L2108.6,29.374Zm-67.62,13.871V56.979q5.307,0,5.3-3.267V26.681q0-3.272-5.3-3.266V22.36h16.083v1.055q-5.307,0-5.3,3.266V53.712q0,3.272,5.3,3.267v1.054Zm-16.97,0h-.022V56.969q4.729,0,4.728-3.267V27.328l-13.8,30.705h-.741l-13.473-29.4v25.08q0,3.272,5.228,3.267v1.054H1987V56.979q5.228,0,5.228-3.267V26.681q0-3.272-5.144-3.266V22.36h10.708l12.42,27.188,11.919-27.188h10.688v1.055q-4.729,0-4.729,3.266l.084,27.032q0,3.272,4.727,3.267v1.054Zm112.926-.01V56.969q4.744,0,4.748-3.267V26.67q0-3.272-4.748-3.267V22.349h13.892a32.383,32.383,0,0,1,11.929,1.962,15.693,15.693,0,0,1,7.629,6.012,17.849,17.849,0,0,1,2.651,9.988,17.833,17.833,0,0,1-2.432,9.487,15.488,15.488,0,0,1-7.295,6.1,29.948,29.948,0,0,1-12,2.129Zm10.792-33.231c-.344.282-.522,1.044-.522,2.307V53.222a2.377,2.377,0,0,0,2.536,2.609q8.5,0,12.952-4.081t4.456-11.355a16.912,16.912,0,0,0-2.118-8.787,13.4,13.4,0,0,0-5.949-5.407,20.424,20.424,0,0,0-8.84-1.816A4.783,4.783,0,0,0,2141.612,24.792Zm-67.945,33.231V56.969c2.495,0,3.747-.439,3.747-1.315a2.1,2.1,0,0,0-.323-1.054,46.593,46.593,0,0,0-7.192-8.5l-5.228-5.146-1.4,1.138V53.7q0,3.272,4.821,3.267v1.054h-15.2V56.969q4.9,0,4.906-3.267V26.67q0-3.272-4.906-3.267V22.349h15.374v1.044q-5,0-4.989,3.267V39.32l5.458-4.864q3.146-2.8,5.709-5.479t2.557-3.789a1.3,1.3,0,0,0-.929-1.44,14.145,14.145,0,0,0-2.765-.355V22.339h14.131v1.054a8.263,8.263,0,0,0-4.425,1.117,24.915,24.915,0,0,0-4.227,3.549l-9.728,9.634,8.5,9,3.59,3.987c1.44,1.649,2.495,2.828,3.183,3.559a10.882,10.882,0,0,0,2.494,1.91,6.5,6.5,0,0,0,3.246.825v1.054Zm47.082-61.442-15.425-21.949-3.571,5.219,11.314,16.73L2097.787,5.4l5.74-8.537-10.2-14.9,3.485,5.1-6.711,9.81,5.741,8.537-15.28-8.819,11.324-16.73-3.57-5.219L2072.9-3.409,2084.8,9.064,2063.356-3.482,2088.32-40l8.5,12.566,8.5-12.566,24.965,36.519L2108.83,9.064Z" transform="translate(-1986.5 40.89)" fill="#fff" stroke="rgba(0,0,0,0)" stroke-width="1"/></svg>