<?xml version="1.0" encoding="utf-8"?>
<!-- Generator: Adobe Illustrator 23.0.2, SVG Export Plug-In . SVG Version: 6.00 Build 0)  -->
<svg version="1.1" id="Layer_1" xmlns="http://www.w3.org/2000/svg" xmlns:xlink="http://www.w3.org/1999/xlink" x="0px" y="0px"
	 viewBox="0 0 118.8 118.8" style="enable-background:new 0 0 118.8 118.8;" xml:space="preserve">
<style type="text/css">
	.st0{fill:#FFFFFF;}
</style>
<g id="i-galka" transform="translate(-212.59 -1886.59)">
	<path id="i-galka-2" class="st0" d="M300.2,1914.5c-1.9,0-3.7,0.2-5.6,0.5c-1.7,0.2-3.3,0.6-4.8,1.3c-1.6,1.1-3.1,2.4-4.4,3.9
		c-2.7,3-5.2,6.2-7.4,9.6c-3,4.3-5.6,8.4-7.8,12.4c-2,3.5-4,7.4-6,11.5c-1.2-1.6-2.7-3.1-4.4-4.3c-1.6-1.2-3.5-1.9-5.5-2
		c-2.1,0.1-4.1,0.9-5.7,2.3c-2.1,1.6-3.2,3.4-3.2,5.3c0,1.5,0.9,3.2,2.8,5.2c2.4,2.6,4.6,5.3,6.5,8.3c0.8,1.2,1.6,2.4,2.5,3.6
		c0.6,0.6,1.3,1.1,2.1,1.4c1.3,0.4,2.7,0.5,4.1,0.4c2.7,0,4.5-0.3,5.6-0.9c1.1-0.6,1.9-1.4,2.5-2.5c1-1.9,1.8-3.9,2.6-5.9
		c3.3-8.1,7.4-16,12.2-23.4c5.1-8,10-14.2,14.7-18.6c0.8-0.7,1.6-1.5,2.2-2.3c0.4-0.6,0.6-1.4,0.6-2.2c0-1-0.4-1.9-1.1-2.6
		C302.3,1914.9,301.3,1914.5,300.2,1914.5z"/>
</g>
</svg>
