<?xml version="1.0" encoding="utf-8"?>
<!-- Generator: Adobe Illustrator 23.0.2, SVG Export Plug-In . SVG Version: 6.00 Build 0)  -->
<svg version="1.1" id="Layer_1" xmlns="http://www.w3.org/2000/svg" xmlns:xlink="http://www.w3.org/1999/xlink" x="0px" y="0px"
	 viewBox="0 0 118.8 118.8" style="enable-background:new 0 0 118.8 118.8;" xml:space="preserve">
<style type="text/css">
	.st0{fill:#FFFFFF;}
</style>
<g id="i-list" transform="translate(-610.59 -2266.59)">
	<path id="i-list-2" class="st0" d="M649.8,2356.3c-2,0-3.6-1.6-3.6-3.6v-53.4c0-2,1.6-3.6,3.6-3.6h42.2c2,0,3.6,1.6,3.6,3.6v44.2
		h-7.9c-3.1,0-5.7,2.5-5.7,5.7v7.1H649.8z M655.6,2328.7h30.6v-2.5h-30.6V2328.7z M655.6,2320h30.6v-2.5h-30.6V2320z M655.6,2311.3
		h30.6v-2.5h-30.6V2311.3z M684.1,2349.2c0-2,1.6-3.6,3.6-3.6h6.3l-9.9,9.3L684.1,2349.2z"/>
</g>
</svg>
