<?xml version="1.0" encoding="utf-8"?>
<!-- Generator: Adobe Illustrator 23.0.2, SVG Export Plug-In . SVG Version: 6.00 Build 0)  -->
<svg version="1.1" id="Layer_1" xmlns="http://www.w3.org/2000/svg" xmlns:xlink="http://www.w3.org/1999/xlink" x="0px" y="0px"
	 viewBox="0 0 87.3 87.3" style="enable-background:new 0 0 87.3 87.3;" xml:space="preserve">
<style type="text/css">
	.st0{fill:#7695A8;}
</style>
<g transform="translate(1 1)">
	<path class="st0" d="M28.1,64.4c-1.4,0-2.6-1.2-2.6-2.6V23.5c0-1.4,1.2-2.6,2.6-2.6h30.3c1.4,0,2.6,1.2,2.6,2.6v31.7h-5.6
		c-2.2,0-4.1,1.8-4.1,4.1v5.1H28.1z M32.3,44.6h21.9v-1.8H32.3V44.6z M32.3,38.4h21.9v-1.8H32.3V38.4z M32.3,32.1h21.9v-1.8H32.3
		V32.1z M52.7,59.3c0-1.4,1.2-2.6,2.6-2.6h4.5l-7.1,6.7L52.7,59.3z"/>
</g>
</svg>
