<?xml version="1.0" encoding="utf-8"?>
<!-- Generator: Adobe Illustrator 23.0.2, SVG Export Plug-In . SVG Version: 6.00 Build 0)  -->
<svg version="1.1" id="Layer_1" xmlns="http://www.w3.org/2000/svg" xmlns:xlink="http://www.w3.org/1999/xlink" x="0px" y="0px"
	 viewBox="0 0 118.8 118.8" style="enable-background:new 0 0 118.8 118.8;" xml:space="preserve">
<style type="text/css">
	.st0{fill:#FFFFFF;}
</style>
<g id="i-post" transform="translate(-1004.59 -2266.59)">
	<path id="i-post-2" class="st0" d="M1054.7,2356.5c0-6.1,4.9-11,11-11c6.1,0,11,4.9,11,11c0,6.1-4.9,11-11,11
		C1059.7,2367.5,1054.7,2362.6,1054.7,2356.5C1054.7,2356.5,1054.7,2356.5,1054.7,2356.5z M1057.6,2356.5c0,4.5,3.6,8.1,8.1,8.1
		c4.5,0,8.1-3.6,8.1-8.1c0-4.5-3.6-8.1-8.1-8.1C1061.2,2348.3,1057.6,2352,1057.6,2356.5C1057.6,2356.5,1057.6,2356.5,1057.6,2356.5
		L1057.6,2356.5z M1060.5,2356.5c0-2.9,2.4-5.3,5.3-5.3c2.9,0,5.3,2.4,5.3,5.3c0,2.9-2.4,5.3-5.3,5.3c0,0,0,0,0,0
		C1062.8,2361.8,1060.5,2359.4,1060.5,2356.5C1060.5,2356.5,1060.5,2356.5,1060.5,2356.5z M1076.8,2347.8l17.9-8.5l1.8,3.7
		l-17.6,8.4C1078.4,2350,1077.7,2348.8,1076.8,2347.8L1076.8,2347.8z M1065.7,2342.4c-0.3,0-0.6,0-0.9,0l-11-23.4l34.2-16.2
		l14.2,29.9l-27.3,12.9C1072.3,2343.6,1069.1,2342.4,1065.7,2342.4L1065.7,2342.4z M1066.6,2338.2l0.6,1.3l11.8-5.7l-0.6-1.3
		L1066.6,2338.2z M1064.4,2330.6l2.8,5.8l2.6-1.2l-2.8-5.8L1064.4,2330.6z M1071.3,2327.3l2.8,5.8l2.6-1.2l-2.8-5.8L1071.3,2327.3z
		 M1062.5,2330.2l5.5-2.6l-5-3.4L1062.5,2330.2z M1084.4,2321.1c0,0,2.5,5.1,3,6.3c0.7,1.2,2.2,1.6,3.3,1c1.1-0.6,1.6-2,1.1-3.2
		l-1.2,0.6c0.2,0.5,0,1.1-0.5,1.4c0,0-1.1,0.5-1.5-0.4c-0.6-1.2-3-6.3-3-6.3L1084.4,2321.1z M1069.4,2326.9l5.5-2.6l-5-3.4
		L1069.4,2326.9z M1082.2,2315c-3,1.4-4.8,4.5-4.6,7.8l13.6-6.5C1088.8,2314.1,1085.2,2313.6,1082.2,2315L1082.2,2315z
		 M1055.2,2338.1l-1.2,0.6l-2.1-4.4l1.2-0.6l-7.1-14.9l-1.2,0.6l-2.1-4.4l1.2-0.6l-6-12.7l-2.2,1.1l0.7,1.4l-9.9,4.7l-2.4-5l9.9-4.7
		l0.4,0.9l4.6-2.2l1.4-0.7l21.6,45.5c-1.3,0.4-2.6,0.9-3.8,1.7L1055.2,2338.1z M1046.5,2303l21.2-10l6.4,13.6l-21.2,10L1046.5,2303z
		"/>
</g>
</svg>
