<?xml version="1.0" encoding="utf-8"?>
<!-- Generator: Adobe Illustrator 23.0.2, SVG Export Plug-In . SVG Version: 6.00 Build 0)  -->
<svg version="1.1" id="Layer_1" xmlns="http://www.w3.org/2000/svg" xmlns:xlink="http://www.w3.org/1999/xlink" x="0px" y="0px"
	 viewBox="0 0 87.3 87.3" style="enable-background:new 0 0 87.3 87.3;" xml:space="preserve">
<style type="text/css">
	.st0{fill:#7695A8;}
</style>
<g transform="translate(0.999 1)">
	<path class="st0" d="M36,64.5c0-4.4,3.5-7.9,7.9-7.9s7.9,3.5,7.9,7.9c0,4.4-3.5,7.9-7.9,7.9S36,68.9,36,64.5L36,64.5z M38.1,64.5
		c0,3.2,2.6,5.8,5.8,5.8c3.2,0,5.8-2.6,5.8-5.8c0-3.2-2.6-5.8-5.8-5.8C40.7,58.7,38.1,61.3,38.1,64.5C38.1,64.5,38.1,64.5,38.1,64.5
		z M40.1,64.5c0-2.1,1.7-3.8,3.8-3.8c2.1,0,3.8,1.7,3.8,3.8c0,2.1-1.7,3.8-3.8,3.8l0,0C41.8,68.3,40.1,66.6,40.1,64.5z M51.9,58.3
		l12.8-6.1l1.3,2.7l-12.6,6C53,59.9,52.5,59,51.9,58.3L51.9,58.3z M43.9,54.4c-0.2,0-0.4,0-0.7,0l-7.9-16.8l24.5-11.6L70,47.6
		l-19.6,9.3C48.6,55.3,46.3,54.4,43.9,54.4L43.9,54.4z M44.5,51.4l0.5,0.9l8.5-4.1L53,47.4L44.5,51.4z M43,46l2,4.2l1.9-0.9l-2-4.2
		L43,46z M47.9,43.6l2,4.2l1.9-0.9l-2-4.2L47.9,43.6z M41.6,45.7l3.9-1.9l-3.6-2.4L41.6,45.7z M57.3,39.1c0,0,1.8,3.7,2.2,4.5
		c0.5,0.9,1.5,1.2,2.4,0.7c0.8-0.4,1.2-1.4,0.8-2.3l-0.9,0.4c0.2,0.4,0,0.8-0.4,1c0,0-0.8,0.4-1.1-0.3c-0.4-0.8-2.2-4.5-2.2-4.5
		L57.3,39.1z M46.5,43.3l3.9-1.9L46.9,39L46.5,43.3z M55.7,34.8c-2.1,1-3.5,3.2-3.3,5.6l9.8-4.7C60.4,34.1,57.9,33.7,55.7,34.8
		L55.7,34.8z M36.3,51.4l-0.8,0.4L34,48.6l0.8-0.4l-5.1-10.7L28.9,38l-1.5-3.1l0.8-0.4l-4.3-9.1L22.3,26l0.5,1l-7.1,3.4l-1.7-3.6
		l7.1-3.4l0.3,0.6l3.3-1.6l1-0.5l15.5,32.7c-1,0.3-1.9,0.7-2.7,1.2L36.3,51.4z M30.1,26.2L45.3,19l4.6,9.8l-15.2,7.2L30.1,26.2z"/>
</g>
</svg>
