<?xml version="1.0" encoding="utf-8"?>
<!-- Generator: Adobe Illustrator 23.0.2, SVG Export Plug-In . SVG Version: 6.00 Build 0)  -->
<svg version="1.1" id="Layer_1" xmlns="http://www.w3.org/2000/svg" xmlns:xlink="http://www.w3.org/1999/xlink" x="0px" y="0px"
	 viewBox="0 0 118.8 118.8" style="enable-background:new 0 0 118.8 118.8;" xml:space="preserve">
<style type="text/css">
	.st0{fill:#FFFFFF;}
</style>
<g id="i-puzzle" transform="translate(-212.59 -2266.59)">
	<path id="i-puzzle-2" class="st0" d="M292.9,2360.1l-7.3,0l-0.1,0h-0.1c-0.1,0-0.3-0.1-0.3-0.2c-0.1-0.2-0.1-0.4,0-0.5
		c1.2-2,1.1-4.4-0.2-6.3l0,0c-0.3-0.4-0.7-0.7-1.1-1l0,0c-1.8-1.2-4.1-1.2-5.8,0l0,0c-0.4,0.3-0.8,0.6-1.1,1l0,0
		c-1.3,1.9-1.4,4.3-0.3,6.3c0.1,0.2,0.1,0.3,0,0.5c-0.1,0.1-0.2,0.2-0.3,0.2l0,0l-0.2,0h-7.3c-0.1,0-0.2-0.1-0.3-0.2
		c0-0.1,0-0.2,0-0.2l0-8.6l-0.6,0.1c-0.3-0.2-0.7-0.2-1,0c-0.1,0-0.2,0.1-0.2,0.1c-0.1,0-0.1,0-0.2,0l-0.2,0l-0.1,0l-0.1,0
		c-0.2,0-0.5,0.1-0.7,0.1c-1,0-2-0.4-2.8-1c-0.1-0.1-0.2-0.2-0.3-0.3c-0.1-0.2-0.2-0.3-0.3-0.5l0,0c-0.4-0.7-0.6-1.5-0.6-2.4
		c0-0.2,0-0.4,0-0.5c0.1-2.1,2-3.8,4.1-3.7c0.2,0,0.4,0,0.6,0.1l0.1,0l0.1,0c0.2,0,0.4,0,0.6-0.1l0.1,0c0.3,0.1,0.6,0.2,0.8,0.1
		l0.8,0.2l0-8.5c0-0.1,0-0.2,0-0.3c0.1-0.1,0.2-0.2,0.3-0.2l0.3,0l7,0h0l0,0c0.4-0.1,0.7-0.3,0.8-0.6c0.2-0.3,0.2-0.7,0-1
		c-0.9-1.8-0.6-4.1,0.9-5.5c0.8-0.8,2-1.3,3.2-1.3h0c1.2,0,2.3,0.4,3.2,1.3c0.9,0.9,1.4,2.1,1.4,3.4c0,0.7-0.2,1.5-0.5,2.1
		c-0.2,0.3-0.2,0.7,0,1c0.2,0.3,0.5,0.6,0.8,0.6l0,0h7l0.2,0l0.1,0c0.2,0,0.4,0.2,0.4,0.5l0,7.9l0.1,0.1c0.3,0.4,0.9,0.5,1.4,0.3
		c1.7-0.8,3.6-0.6,5.1,0.6c0.2,0.1,0.3,0.3,0.4,0.4c1.2,1.6,1.3,3.6,0.4,5.4c-0.8,1.5-2.3,2.4-3.9,2.4h0c-0.7,0-1.4-0.2-2-0.5
		c-0.5-0.3-1.1-0.1-1.4,0.4l-0.1,0.1l0,7.9C293.4,2359.9,293.2,2360.1,292.9,2360.1L292.9,2360.1z M259.5,2359.6L259.5,2359.6
		l-0.2,0h0v0l0-0.1c0.6-0.9,0.8-2,0.8-3c0-1.3-0.4-2.6-1.1-3.6l-0.1-0.1c-0.3-0.4-0.7-0.8-1.2-1.1l0,0l0,0c-0.9-0.6-2-0.9-3.1-0.9h0
		c-1.1,0-2.2,0.4-3.1,0.9l0,0c-0.4,0.3-0.8,0.7-1.2,1.1l-0.1,0.1c-0.7,1.1-1.1,2.3-1.1,3.6c0,1.1,0.3,2.1,0.8,3l0,0.1v0h0l-0.2,0
		l-7.3,0c0,0,0,0,0-0.1l0-8.1l-0.1-0.2c-0.3-0.4-0.8-0.6-1.2-0.7c-0.2,0-0.5,0.1-0.7,0.2c-0.6,0.3-1.2,0.4-1.8,0.4
		c-2.3,0-4.1-1.9-4.1-4.2c0-1,0.3-2.1,1-2.9c0.1-0.1,0.2-0.2,0.3-0.3c0.8-0.6,1.8-1,2.8-1c0.6,0,1.3,0.2,1.8,0.4
		c0.2,0.1,0.5,0.2,0.7,0.2c0.5,0,0.9-0.2,1.2-0.6l0.2-0.2l0-8c0,0,0-0.1,0-0.1h0.1l0.1,0l0.1,0l7,0h0l0.1,0c0.7-0.1,1.2-0.7,1.3-1.4
		l0-0.1v0c0-0.1,0-0.2,0-0.3l0,0l-0.1-0.3l0-0.1c-0.3-0.6-0.5-1.3-0.5-1.9v0c0-0.2,0-0.3,0-0.5c0-0.2,0.1-0.5,0.1-0.7
		c0.3-0.9,0.8-1.7,1.6-2.3c0.7-0.5,1.5-0.8,2.3-0.8h0.1h0.1c1.8,0,3.4,1.3,3.9,3c0.3,1,0.2,2.1-0.3,3.1l0,0l-0.1,0.1
		c0,0,0,0.1,0,0.1l-0.1,0.3h0.1c0,0,0,0.1,0,0.1l0,0.2c0.1,0.7,0.6,1.3,1.3,1.4l0.1,0l7,0l0.1,0l0.1,0l0.1,0c0,0,0,0,0,0.1l0,6.7h0
		c-0.3,0-0.5,0-0.8,0.1h0c-0.2,0-0.3-0.1-0.5-0.1v0h-0.7v0c-1.2,0.1-2.4,0.6-3.3,1.4c-1.2,1.1-1.9,2.7-1.9,4.3c0,0.4,0,0.8,0.1,1.1
		c0,0.2,0.1,0.4,0.1,0.6c0.2,0.7,0.5,1.4,0.9,2c0.2,0.3,0.4,0.5,0.7,0.7l0.1,0.1c1,0.7,2.3,1.1,3.5,1.2c0.3,0,0.5,0,0.8-0.1l0.1,0
		c0.2,0,0.4,0.1,0.7,0.1c0.1,0,0.1,0,0.2,0l0,6.8c0,0,0,0.1,0,0.1L259.5,2359.6z M242,2325.5L242,2325.5c-0.3-0.4-0.6-0.6-1-0.6
		c-0.2,0-0.3,0-0.5,0.1c-0.6,0.3-1.3,0.5-2,0.5c-1.6,0-3.2-0.9-3.9-2.4c-0.9-1.7-0.7-3.8,0.5-5.4c0.1-0.2,0.3-0.3,0.4-0.4
		c1.4-1.1,3.4-1.4,5.1-0.5c0.5,0.2,1,0.1,1.4-0.3l0.1-0.1l0-7.9c0-0.2,0.2-0.4,0.4-0.5l0.3,0l7,0l0,0c0.4-0.1,0.7-0.3,0.8-0.6
		c0.2-0.3,0.2-0.7,0-1c-0.9-1.8-0.6-4.1,0.9-5.5c0.8-0.8,2-1.3,3.2-1.3h0c1.2,0,2.3,0.4,3.2,1.3c0.9,0.9,1.4,2.1,1.4,3.4
		c0,0.7-0.2,1.5-0.5,2.1c-0.2,0.3-0.2,0.7,0,1c0.2,0.3,0.5,0.6,0.8,0.6l0,0h7l0.2,0l0.1,0c0.2,0,0.4,0.2,0.4,0.5l0,7.9l0.1,0.1
		c0.3,0.4,0.9,0.5,1.4,0.3c1.7-0.8,3.6-0.6,5.1,0.6c0.2,0.1,0.3,0.3,0.4,0.4c1.2,1.6,1.3,3.6,0.4,5.4c-0.8,1.5-2.3,2.4-3.9,2.4l0,0
		c-0.7,0-1.4-0.2-2-0.5c-0.5-0.2-1.1-0.1-1.4,0.4l-0.1,0.1l0,7.6c-0.1,0-0.2,0-0.3,0l0,0c-0.1,0-0.2,0-0.3,0l-6.9,0c0,0,0,0,0,0
		l0-0.1l0,0c0.6-1.3,0.8-2.8,0.3-4.2c-0.7-2.4-2.9-4.1-5.4-4.1h-0.1h-0.1c-2.5,0-4.7,1.7-5.3,4.1c-0.2,0.5-0.2,1.1-0.3,1.6v0.4h0
		c0.1,0.8,0.2,1.5,0.6,2.2l0,0.1c0,0,0,0,0,0l-6.9,0c-0.1,0-0.2,0-0.3,0c-0.1,0-0.2,0-0.3,0L242,2325.5z M292.5,2329.2
		c-0.1,0-0.2,0-0.3-0.1l-5.1-5.3l-0.1-0.1l-0.1-0.1c-0.1-0.1-0.1-0.3-0.1-0.4c0.1-0.2,0.2-0.3,0.4-0.3c2.2-0.5,3.9-2.3,4.4-4.5l0,0
		c0.1-0.5,0-1,0-1.5v0c-0.4-2.1-2-3.8-4-4.2h0c-0.5-0.1-1-0.1-1.5-0.1l0,0c-2.2,0.3-4.1,2-4.7,4.1c0,0.2-0.2,0.3-0.3,0.4
		c-0.1,0-0.3,0-0.4-0.1l0,0l-0.1-0.1l-5.1-5.3c-0.1-0.1-0.1-0.2-0.1-0.3c0-0.1,0.1-0.2,0.1-0.3l5.7-5.5l0-0.1
		c0.1-0.5-0.2-1.1-0.7-1.3c-0.7-0.2-1.3-0.6-1.7-1.1c-1.1-1.2-1.5-2.9-1-4.5c0.6-1.8,2.3-3.1,4.2-3.4c0.2,0,0.4,0,0.6,0
		c1.8,0.2,3.3,1.5,3.9,3.3c0.1,0.5,0.6,0.8,1.2,0.8l0.1,0l5.7-5.5c0.2-0.2,0.4-0.2,0.6,0l0.2,0.2l4.8,5l0,0c0.3,0.2,0.7,0.3,1,0.2
		c0.3-0.1,0.6-0.4,0.7-0.7c0.7-1.9,2.5-3.2,4.6-3.2c1.2,0,2.3,0.5,3.1,1.4l0,0c0.8,0.8,1.3,2,1.3,3.2c0,1.3-0.5,2.5-1.5,3.3
		c-0.5,0.5-1.2,0.9-1.9,1.1c-0.3,0.1-0.6,0.4-0.7,0.7c-0.1,0.3-0.1,0.7,0.1,1l0,0l4.8,5.1l0.1,0.2l0,0c0.2,0.2,0.1,0.5,0,0.6
		l-5.7,5.4l0,0.1c-0.1,0.5,0.2,1,0.7,1.2c1.7,0.6,2.9,2.2,3.1,4c0,0.2,0,0.4,0,0.6c-0.3,1.9-1.7,3.5-3.6,4c-1.6,0.5-3.3,0-4.4-1.2
		c-0.5-0.5-0.8-1.1-1-1.8c-0.2-0.5-0.7-0.9-1.2-0.8l-0.1,0l-5.7,5.5C292.7,2329.1,292.6,2329.2,292.5,2329.2L292.5,2329.2z"/>
</g>
</svg>
