<?xml version="1.0" encoding="utf-8"?>
<!-- Generator: Adobe Illustrator 23.0.2, SVG Export Plug-In . SVG Version: 6.00 Build 0)  -->
<svg version="1.1" id="Layer_1" xmlns="http://www.w3.org/2000/svg" xmlns:xlink="http://www.w3.org/1999/xlink" x="0px" y="0px"
	 viewBox="0 0 87.3 87.3" style="enable-background:new 0 0 87.3 87.3;" xml:space="preserve">
<style type="text/css">
	.st0{fill:#7695A8;}
</style>
<g transform="translate(1 1)">
	<path class="st0" d="M57.7,67.1l-5.3,0l-0.1,0h-0.1c-0.1,0-0.2-0.1-0.2-0.1c-0.1-0.1-0.1-0.3,0-0.4c0.8-1.4,0.8-3.2-0.2-4.5l0,0
		c-0.2-0.3-0.5-0.5-0.8-0.7l0,0c-1.3-0.8-2.9-0.8-4.2,0l0,0c-0.3,0.2-0.6,0.4-0.8,0.7l0,0c-0.9,1.3-1,3.1-0.2,4.5
		c0.1,0.1,0.1,0.2,0,0.4c0,0.1-0.1,0.1-0.3,0.1l0,0l-0.1,0h-5.3c-0.1,0-0.2,0-0.2-0.1c0-0.1,0-0.1,0-0.2l0-6.2l-0.5,0.1
		c-0.2-0.1-0.5-0.1-0.7,0c-0.1,0-0.1,0.1-0.2,0.1l-0.2,0l-0.1,0l-0.1,0l-0.1,0c-0.2,0-0.3,0-0.5,0c-0.7,0-1.4-0.3-2-0.7
		c-0.1-0.1-0.2-0.1-0.2-0.2c-0.1-0.1-0.1-0.2-0.2-0.4l0,0c-0.3-0.5-0.5-1.1-0.5-1.7c0-0.1,0-0.3,0-0.4c0.1-1.5,1.4-2.7,2.9-2.6
		c0.2,0,0.3,0,0.5,0.1l0.1,0l0.1,0c0.1,0,0.3,0,0.4,0l0,0c0.2,0.1,0.4,0.1,0.6,0l0.5,0.1l0-6.1c0-0.1,0-0.2,0-0.2
		c0.1-0.1,0.1-0.1,0.2-0.1l0.2,0l5,0h0h0c0.3,0,0.5-0.2,0.6-0.5c0.1-0.2,0.1-0.5,0-0.7c-0.7-1.3-0.4-2.9,0.6-3.9
		c0.6-0.6,1.4-0.9,2.3-0.9h0c0.9,0,1.7,0.3,2.3,0.9c0.6,0.6,1,1.5,1,2.4c0,0.5-0.1,1.1-0.4,1.5c-0.1,0.2-0.1,0.5,0,0.7
		c0.1,0.2,0.3,0.4,0.6,0.5h0h5l0.2,0h0c0.2,0,0.3,0.2,0.3,0.3l0,5.7l0.1,0.1c0.2,0.3,0.7,0.4,1,0.2c1.2-0.6,2.6-0.4,3.6,0.4
		c0.1,0.1,0.2,0.2,0.3,0.3c0.8,1.1,1,2.6,0.3,3.9c-0.5,1-1.6,1.7-2.8,1.7l0,0c-0.5,0-1-0.1-1.4-0.4c-0.4-0.2-0.8-0.1-1,0.3l0,0.1
		l0,5.7C58,67,57.9,67.1,57.7,67.1L57.7,67.1z M33.7,66.7L33.7,66.7l-0.1,0l0,0v0l0-0.1c0.4-0.7,0.6-1.4,0.6-2.2
		c0-0.9-0.3-1.8-0.8-2.6l0-0.1c-0.2-0.3-0.5-0.6-0.8-0.8l0,0l0,0c-0.7-0.4-1.4-0.6-2.2-0.7h0c-0.8,0-1.6,0.3-2.2,0.7l0,0
		c-0.3,0.2-0.6,0.5-0.8,0.8l0,0.1c-0.5,0.8-0.8,1.7-0.8,2.6c0,0.8,0.2,1.5,0.6,2.2l0,0.1v0h0l-0.1,0l-5.3,0c0,0,0,0,0,0l0-5.8
		l-0.1-0.1c-0.2-0.3-0.5-0.5-0.9-0.5c-0.2,0-0.3,0-0.5,0.1c-0.4,0.2-0.9,0.3-1.3,0.3c-1.6,0-2.9-1.4-2.9-3c0-0.8,0.3-1.5,0.7-2.1
		c0.1-0.1,0.1-0.2,0.2-0.2c0.6-0.4,1.3-0.7,2-0.7c0.5,0,0.9,0.1,1.3,0.3c0.2,0.1,0.3,0.1,0.5,0.1c0.3,0,0.6-0.1,0.8-0.4l0.1-0.2
		l0-5.8c0,0,0,0,0,0h0.1l0,0l0.1,0l5,0h0l0,0c0.5-0.1,0.9-0.5,0.9-1l0-0.1v0c0-0.1,0-0.2,0-0.2l0,0l-0.1-0.2l0-0.1
		c-0.2-0.4-0.3-0.9-0.3-1.4v0c0-0.1,0-0.2,0-0.4c0-0.2,0.1-0.3,0.1-0.5c0.2-0.7,0.6-1.2,1.1-1.6c0.5-0.4,1.1-0.5,1.7-0.5h0.1h0.1
		c1.3,0,2.5,0.9,2.8,2.2c0.2,0.7,0.2,1.5-0.2,2.2l0,0l0,0.1c0,0,0,0,0,0.1l-0.1,0.2h0c0,0,0,0.1,0,0.1l0,0.1c0,0.5,0.4,0.9,0.9,1
		l0,0l5.1,0l0,0l0.1,0l0.1,0c0,0,0,0,0,0l0,4.8h0c-0.2,0-0.4,0-0.6,0l0,0c-0.1,0-0.2,0-0.4-0.1v0h-0.5v0c-0.9,0.1-1.7,0.4-2.4,1
		c-0.9,0.8-1.4,1.9-1.4,3.1c0,0.3,0,0.5,0.1,0.8c0,0.2,0.1,0.3,0.1,0.4c0.2,0.5,0.4,1,0.7,1.4c0.1,0.2,0.3,0.4,0.5,0.5l0.1,0.1
		c0.7,0.5,1.6,0.8,2.5,0.8c0.2,0,0.4,0,0.6,0l0.1,0c0.2,0,0.3,0.1,0.5,0.1H39l0,4.9c0,0,0,0,0,0L33.7,66.7z M21.1,42.3L21.1,42.3
		c-0.2-0.3-0.4-0.4-0.7-0.4c-0.1,0-0.2,0-0.4,0.1c-0.4,0.2-0.9,0.4-1.4,0.4c-1.2,0-2.3-0.7-2.8-1.7c-0.6-1.2-0.5-2.7,0.3-3.9
		c0.1-0.1,0.2-0.2,0.3-0.3c1-0.8,2.4-1,3.6-0.4c0.3,0.2,0.8,0.1,1-0.2l0.1-0.1v-5.7c0-0.2,0.1-0.3,0.3-0.3l0.2,0l5,0h0
		c0.3,0,0.5-0.2,0.6-0.4c0.1-0.2,0.1-0.5,0-0.7c-0.7-1.3-0.4-2.9,0.6-3.9c0.6-0.6,1.4-0.9,2.3-0.9h0c0.9,0,1.7,0.3,2.3,0.9
		c0.6,0.6,1,1.5,1,2.4c0,0.5-0.1,1.1-0.4,1.5c-0.1,0.2-0.1,0.5,0,0.7c0.1,0.2,0.3,0.4,0.6,0.5h0h5l0.2,0h0c0.2,0,0.3,0.2,0.3,0.3
		l0,5.7l0.1,0.1c0.2,0.3,0.7,0.4,1,0.2c1.2-0.6,2.6-0.4,3.6,0.4c0.1,0.1,0.2,0.2,0.3,0.3c0.8,1.1,1,2.6,0.3,3.9
		c-0.6,1-1.6,1.7-2.8,1.7l0,0c-0.5,0-1-0.1-1.4-0.4c-0.4-0.2-0.8-0.1-1,0.3l0,0.1l0,5.5c-0.1,0-0.1,0-0.2,0l0,0c-0.1,0-0.1,0-0.2,0
		l-4.9,0c0,0,0,0,0,0l0,0l0,0c0.5-0.9,0.6-2,0.2-3c-0.5-1.7-2-2.9-3.8-3h-0.2c-1.8,0-3.4,1.2-3.8,3C26.1,45,26,45.4,26,45.8v0.3h0
		c0,0.5,0.2,1.1,0.4,1.6l0,0.1c0,0,0,0,0,0l-4.9,0c-0.1,0-0.2,0-0.2,0c-0.1,0-0.1,0-0.2,0L21.1,42.3z M57.3,44.9
		c-0.1,0-0.2,0-0.2-0.1L53.5,41l0-0.1l0-0.1c-0.1-0.1-0.1-0.2-0.1-0.3c0-0.1,0.1-0.2,0.3-0.2c1.6-0.4,2.8-1.6,3.1-3.2l0,0
		c0-0.4,0-0.7,0-1.1v0c-0.3-1.5-1.4-2.7-2.9-3h0c-0.3-0.1-0.7-0.1-1.1-0.1h0c-1.6,0.2-2.9,1.4-3.4,3c0,0.1-0.1,0.2-0.2,0.3
		c-0.1,0-0.2,0-0.3-0.1l0,0L48.7,36l-3.6-3.8C45,32.1,45,32.1,45,32c0-0.1,0-0.2,0.1-0.2l4.1-3.9l0-0.1c0.1-0.4-0.1-0.8-0.5-0.9
		c-0.5-0.2-0.9-0.4-1.3-0.8c-0.8-0.9-1.1-2.1-0.7-3.2c0.5-1.3,1.6-2.3,3-2.4c0.1,0,0.3,0,0.4,0c1.3,0.2,2.4,1.1,2.8,2.3
		c0.1,0.4,0.5,0.6,0.8,0.6l0.1,0l4.1-3.9c0.1-0.1,0.3-0.1,0.4,0l0.2,0.1l3.5,3.6l0,0c0.2,0.2,0.5,0.2,0.7,0.1
		c0.2-0.1,0.4-0.3,0.5-0.5c0.5-1.4,1.8-2.3,3.3-2.3c0.9,0,1.7,0.4,2.2,1l0,0c0.6,0.6,0.9,1.4,0.9,2.3c0,0.9-0.4,1.8-1.1,2.4
		c-0.4,0.4-0.9,0.6-1.4,0.8c-0.2,0.1-0.4,0.3-0.5,0.5c-0.1,0.2-0.1,0.5,0.1,0.7l0,0l3.5,3.6l0.1,0.1l0,0c0.1,0.1,0.1,0.3,0,0.4
		l-4.1,3.9l0,0.1c-0.1,0.4,0.2,0.7,0.5,0.9c1.2,0.5,2.1,1.6,2.2,2.9c0,0.1,0,0.3,0,0.4c-0.2,1.4-1.2,2.5-2.6,2.9
		c-1.1,0.3-2.4,0-3.2-0.8c-0.3-0.4-0.6-0.8-0.7-1.3c-0.1-0.4-0.5-0.6-0.9-0.6l-0.1,0l-4.1,3.9C57.5,44.9,57.4,44.9,57.3,44.9
		L57.3,44.9z"/>
</g>
</svg>
