<?xml version="1.0" encoding="utf-8"?>
<!-- Generator: Adobe Illustrator 23.0.2, SVG Export Plug-In . SVG Version: 6.00 Build 0)  -->
<svg version="1.1" id="Layer_1" xmlns="http://www.w3.org/2000/svg" xmlns:xlink="http://www.w3.org/1999/xlink" x="0px" y="0px"
	 viewBox="0 0 87.3 87.3" style="enable-background:new 0 0 87.3 87.3;" xml:space="preserve">
<style type="text/css">
	.st0{fill:#7695A8;}
</style>
<g transform="translate(1.001 1)">
	<path class="st0" d="M21.4,64.6c-2.5-1.2-3.4-4.5-2-7.4l8.2-16.9c0.5-1,1.2-1.9,2.2-2.5l-0.1-0.1c-0.4-0.2-0.5-0.7-0.3-1l0.6-1.2
		c0.2-0.4,0.6-0.6,1-0.4l2.5,1.2l7.3-15L40.5,19l4.6-6l2.7,1.3l-1.9,7.3l-2,1.2l-7.3,15l2.5,1.2c0.4,0.2,0.5,0.7,0.3,1l-0.6,1.2
		c-0.2,0.4-0.6,0.6-1,0.4l-0.1-0.1c0.1,1.1-0.1,2.2-0.6,3.2l-8.2,16.9c-1.4,2.9-4.6,4.2-7.1,3L21.4,64.6z M25.6,62.3l1,0.5l9.1-18.6
		l-1-0.5L25.6,62.3z M22.7,60.9l1,0.5l9.1-18.6l-1-0.5L22.7,60.9z M19.7,59.4l1,0.5l9.1-18.6l-1-0.5L19.7,59.4z M43.2,74.2l2.7-5.6
		L43,64l-5.5,0.5l-2.7,5.6c-0.1,0.2-0.4,0.3-0.7,0.2c-0.1,0-0.2-0.1-0.2-0.2c-2.2-4.4-0.4-9.8,4-12.1c1.4-0.7,2.9-1,4.4-0.9
		l11.1-22.8c-3.2-3.8-2.8-9.4,1-12.7c1.2-1,2.6-1.7,4.1-2c0.3-0.1,0.5,0.1,0.6,0.4c0,0.1,0,0.2,0,0.3l-2.7,5.6l2.9,4.6l5.5-0.5
		l2.7-5.6c0.1-0.2,0.4-0.3,0.7-0.2c0.1,0,0.2,0.1,0.2,0.2c2.2,4.4,0.4,9.8-4,12.1c-1.4,0.7-2.9,1-4.4,0.9L48.8,60.3
		c3.2,3.8,2.8,9.4-1,12.7c-1.2,1-2.6,1.7-4.1,2c-0.1,0-0.2,0-0.3,0C43.2,74.8,43.1,74.5,43.2,74.2L43.2,74.2z"/>
</g>
</svg>
