<?xml version="1.0" encoding="utf-8"?>
<!-- Generator: Adobe Illustrator 23.0.2, SVG Export Plug-In . SVG Version: 6.00 Build 0)  -->
<svg version="1.1" id="Layer_1" xmlns="http://www.w3.org/2000/svg" xmlns:xlink="http://www.w3.org/1999/xlink" x="0px" y="0px"
	 viewBox="0 0 118.8 118.8" style="enable-background:new 0 0 118.8 118.8;" xml:space="preserve">
<style type="text/css">
	.st0{fill:#FFFFFF;}
</style>
<g id="i-service" transform="translate(-1004.59 -1886.59)">
	<path id="i-servis" class="st0" d="M1034.2,1975.8c-3.5-1.7-4.8-6.3-2.8-10.3l11.5-23.6c0.7-1.4,1.7-2.6,3-3.5l-0.2-0.1
		c-0.5-0.3-0.7-0.9-0.4-1.4l0.8-1.7c0.2-0.5,0.8-0.8,1.3-0.6l3.5,1.7l10.2-20.9l-0.4-3.2l6.4-8.4l3.7,1.8l-2.7,10.2l-2.7,1.7
		l-10.2,20.9l3.5,1.7c0.5,0.3,0.7,0.9,0.4,1.4l-0.8,1.7c-0.2,0.5-0.8,0.8-1.3,0.6l-0.2-0.1c0.1,1.6-0.2,3.1-0.9,4.5l-11.5,23.6
		c-1.9,4-6.4,5.8-9.9,4.1L1034.2,1975.8z M1040.1,1972.7l1.4,0.7l12.6-25.9l-1.4-0.7L1040.1,1972.7z M1036,1970.7l1.4,0.7l12.6-25.9
		l-1.4-0.7L1036,1970.7z M1031.9,1968.7l1.4,0.7l12.6-25.9l-1.4-0.7L1031.9,1968.7z M1064.6,1989.3l3.8-7.8l-4.1-6.4l-7.6,0.7
		l-3.8,7.8c-0.2,0.3-0.6,0.5-0.9,0.3c-0.1-0.1-0.2-0.2-0.3-0.3c-1.8-3.5-1.8-7.7,0-11.2c2.2-4.4,6.8-7.1,11.8-6.9l15.5-31.8
		c-3.3-3.8-4-9.3-1.7-13.8c1.7-3.4,4.9-5.9,8.7-6.6c0.4-0.1,0.7,0.2,0.8,0.5c0,0.1,0,0.3-0.1,0.4l-3.8,7.8l4.1,6.4l7.6-0.7l3.8-7.8
		c0.2-0.3,0.6-0.5,0.9-0.3c0.1,0.1,0.2,0.2,0.3,0.3c1.8,3.5,1.8,7.7,0,11.2c-2.2,4.4-6.8,7.1-11.8,6.9l-15.5,31.8
		c3.3,3.8,4,9.3,1.7,13.8c-1.7,3.4-4.9,5.9-8.7,6.6c-0.1,0-0.3,0-0.4-0.1C1064.5,1990,1064.4,1989.6,1064.6,1989.3L1064.6,1989.3z"
		/>
</g>
</svg>
