<?xml version="1.0" encoding="utf-8"?>
<!-- Generator: Adobe Illustrator 23.0.2, SVG Export Plug-In . SVG Version: 6.00 Build 0)  -->
<svg version="1.1" id="Layer_1" xmlns="http://www.w3.org/2000/svg" xmlns:xlink="http://www.w3.org/1999/xlink" x="0px" y="0px"
	 viewBox="0 0 87.3 87.3" style="enable-background:new 0 0 87.3 87.3;" xml:space="preserve">
<style type="text/css">
	.st0{fill:#7695A8;}
</style>
<g transform="translate(0.999 1)">
	<path class="st0" d="M42.8,72.8L42.8,72.8c-3.7-2.2-7.3-4.7-10.6-7.5c-2.9-2.4-5.5-5.1-7.9-8.1c-2.3-2.9-4-6.3-4.8-10
		c-0.6-2.9-1.9-20.8-2-21c-0.1-0.8-0.1-1.6,0.1-2.4c0.3-1.5,1.4-2.7,2.9-3.1c1.1-0.3,2.4-0.6,3.6-0.8c3.1-0.6,6.2-1.5,9.2-2.5
		c3.1-1.3,6.3-2.3,9.6-2.9v0h0h0v0c1.3,0.1,4.4,1,9.1,2.7c3.1,1,6.2,1.8,9.4,2.4c1.3,0.3,2.6,0.5,3.8,0.8c1.5,0.3,2.7,1.5,3,3.1
		c0.2,0.8,0.2,1.6,0.1,2.4c0,0.2-1.5,18.5-2.1,21.5c-0.8,3.7-2.5,7.2-4.9,10.1c-2.4,3-5,5.7-8,8.1C50.2,68.2,46.6,70.7,42.8,72.8
		L42.8,72.8z M43,18.7c-2.7,0.6-5.4,1.5-7.9,2.5c-3.2,1.2-6.5,2.1-9.9,2.7l-0.2,0c-1.1,0.2-2.1,0.4-3,0.7C22,25,22,25.3,22,25.5
		c0,0.1,0,0.1,0,0.2c0,0,0,0,0,0.1c0.5,6.9,1.5,18.6,1.9,20.6c1.2,6.2,6.7,12,11.2,15.7c2.4,2,5,3.9,7.6,5.6
		c2.7-1.7,5.3-3.5,7.8-5.6c8.2-6.7,10.7-12.3,11.3-15.7c0.4-2.1,1.4-14,2-21c0-0.1,0-0.1,0-0.1c0,0,0-0.1,0-0.1c0-0.6,0-0.7-0.1-0.7
		c0,0,0,0,0,0c-0.5-0.1-3.1-0.7-3.3-0.8c-3.4-0.6-6.8-1.4-10.1-2.6C48,20.2,45.6,19.4,43,18.7L43,18.7z M42.8,66.1L42.8,66.1
		c-2.8-1.7-5.4-3.7-7.9-5.9c-2.2-1.9-4.1-4-5.8-6.4c-1.7-2.3-3-5-3.5-7.8c-0.4-2.3-1.5-16.4-1.5-16.5c-0.1-0.6,0-1.2,0.1-1.8
		c0.2-1.2,1-2.1,2.2-2.4c0.9-0.2,1.7-0.4,2.7-0.7c2.3-0.5,4.6-1.1,6.8-2c2.3-1,4.7-1.8,7.1-2.2l0,0h0h0c2.3,0.5,4.5,1.2,6.7,2.1
		c2.3,0.8,4.6,1.4,7,1.9c1,0.2,1.9,0.4,2.8,0.6c1.2,0.3,2,1.2,2.2,2.4c0.1,0.6,0.2,1.3,0.1,1.9c0,0.1-1.1,14.5-1.5,16.8
		c-0.6,2.9-1.8,5.6-3.6,7.9c-1.7,2.3-3.7,4.5-5.9,6.4C48.2,62.4,45.6,64.4,42.8,66.1z M40.6,31.8c0.9-0.1,1.8,0.2,2.5,0.7
		c0.6,0.5,0.9,1.2,0.9,1.9c0,0.6-0.2,1.2-0.5,1.8c-0.5,0.8-1.1,1.5-1.7,2.1L33.6,46v3.1h15.9v-4h-9l4.8-4.6c1.1-1,2.1-2.1,2.8-3.4
		c0.5-1,0.7-2.1,0.7-3.2c0-1.2-0.3-2.3-1-3.3c-0.7-1-1.6-1.7-2.7-2.2c-1.3-0.5-2.7-0.8-4.1-0.8c-1.7,0-3.4,0.3-4.9,1
		c-1.4,0.6-2.5,1.6-3.4,2.9l3.5,2.3c0.5-0.7,1.1-1.2,1.9-1.6C38.9,32,39.7,31.8,40.6,31.8z"/>
</g>
</svg>
