<?xml version="1.0" encoding="utf-8"?>
<!-- Generator: Adobe Illustrator 23.0.2, SVG Export Plug-In . SVG Version: 6.00 Build 0)  -->
<svg version="1.1" id="Layer_1" xmlns="http://www.w3.org/2000/svg" xmlns:xlink="http://www.w3.org/1999/xlink" x="0px" y="0px"
	 viewBox="0 0 118.8 118.8" style="enable-background:new 0 0 118.8 118.8;" xml:space="preserve">
<style type="text/css">
	.st0{fill:#FFFFFF;}
</style>
<g id="i-shild" transform="translate(-610.59 -1886.59)">
	<path id="Subtraction_1" class="st0" d="M670.2,1988L670.2,1988c-5.2-3-10.2-6.5-14.8-10.4c-4.1-3.4-7.7-7.2-10.9-11.3
		c-3.2-4.1-5.5-8.8-6.7-13.9c-0.8-4-2.7-28.3-2.7-29.3c-0.1-1.1-0.1-2.2,0.2-3.3c0.2-0.9,0.6-1.8,1.2-2.5c0.7-0.9,1.7-1.5,2.8-1.7
		c1.6-0.4,3.3-0.8,5.1-1.2c4.3-0.8,8.6-2,12.8-3.5c6.5-2.5,11.5-3.8,13.4-4v0h0.1c0,0,0,0,0.1,0v0c1.9,0.1,6.1,1.4,12.6,3.7
		c4.3,1.4,8.7,2.5,13.1,3.3c1.8,0.4,3.6,0.7,5.3,1.1c1.2,0.2,2.2,0.8,3,1.7c0.6,0.7,1.1,1.6,1.3,2.6c0.3,1.1,0.3,2.2,0.2,3.3
		c0,0.3-2,25.8-2.9,30c-1.2,5.2-3.5,10-6.8,14.1c-3.3,4.2-7,8-11.2,11.3C680.5,1981.6,675.4,1985,670.2,1988L670.2,1988z
		 M670.5,1912.7L670.5,1912.7c-3.8,0.9-7.5,2.1-11,3.5c-4.5,1.6-9.1,2.9-13.8,3.8l-0.1,0c-1.5,0.3-2.9,0.6-4.3,1
		c-0.1,0.4-0.1,0.8-0.1,1.2c0,0.1,0,0.2,0,0.3v0c0,0,0,0,0,0.1c0.7,9.6,2.1,25.9,2.7,28.7c1.6,8.6,9.4,16.7,15.6,21.9
		c3.4,2.8,6.9,5.4,10.6,7.8c3.8-2.3,7.4-4.9,10.9-7.8c6.3-5.2,14.1-13.2,15.8-21.9c0.6-2.8,2-19.5,2.8-29.3c0-0.1,0-0.1,0-0.2
		c0-0.1,0-0.1,0-0.2c0-0.8,0-1-0.1-1c0,0,0,0,0,0c-0.7-0.1-4.5-1.1-4.5-1.1h0c-4.8-0.8-9.5-2-14.1-3.6
		C677.5,1914.7,674,1913.6,670.5,1912.7L670.5,1912.7z M670.1,1978.6L670.1,1978.6c-3.9-2.4-7.5-5.1-10.9-8.2
		c-3-2.7-5.7-5.6-8.1-8.9c-2.4-3.2-4.1-7-4.9-10.9c-0.6-3.2-2-22.2-2-23c-0.1-0.9-0.1-1.7,0.1-2.6c0.3-1.6,1.4-2.9,3-3.4
		c1.2-0.3,2.4-0.6,3.8-0.9c3.2-0.7,6.4-1.6,9.5-2.7c3.2-1.4,6.5-2.4,9.9-3.1v0h0h0l0,0v0c1.4,0.1,4.5,1.1,9.3,2.9
		c3.2,1.1,6.4,2,9.7,2.6c1.4,0.3,2.6,0.5,3.9,0.9c1.6,0.4,2.8,1.7,3.1,3.4c0.2,0.9,0.2,1.7,0.1,2.6c0,0.2-1.5,20.2-2.1,23.4
		c-0.8,4-2.6,7.8-5,11c-2.4,3.3-5.2,6.2-8.2,8.9C677.8,1973.6,674.1,1976.3,670.1,1978.6L670.1,1978.6z M668.6,1933.3
		c1.4-0.1,2.8,0.3,4,1.1c0.9,0.7,1.4,1.9,1.4,3.1c0,1-0.3,1.9-0.7,2.8c-0.7,1.3-1.7,2.4-2.8,3.3l-12.8,12.1v5h25.1v-6.3h-14.3
		l7.6-7.2c1.8-1.5,3.3-3.4,4.4-5.4c0.8-1.6,1.1-3.3,1.1-5.1c0-1.9-0.5-3.7-1.5-5.2c-1.1-1.5-2.6-2.7-4.3-3.4
		c-2.1-0.8-4.3-1.3-6.5-1.2c-2.7,0-5.4,0.5-7.8,1.6c-2.2,1-4,2.6-5.4,4.5l5.6,3.6c0.7-1.1,1.8-1.9,2.9-2.5
		C665.9,1933.5,667.2,1933.3,668.6,1933.3z"/>
</g>
</svg>
