<?xml version="1.0" encoding="utf-8"?>
<!-- Generator: Adobe Illustrator 23.0.2, SVG Export Plug-In . SVG Version: 6.00 Build 0)  -->
<svg version="1.1" id="Layer_1" xmlns="http://www.w3.org/2000/svg" xmlns:xlink="http://www.w3.org/1999/xlink" x="0px" y="0px"
	 viewBox="0 0 87.3 87.3" style="enable-background:new 0 0 87.3 87.3;" xml:space="preserve">
<style type="text/css">
	.st0{fill:#7695A8;}
</style>
<g transform="translate(1 1)">
	<path class="st0" d="M21.8,50c0-10.3,7.2-19.2,17.3-21.4v-1.2h2.7v-1.1c-4.7-1-7.7-5.6-6.7-10.3c1-4.7,5.6-7.7,10.3-6.7
		s7.7,5.6,6.7,10.3c-0.7,3.4-3.3,6-6.7,6.7v1.1h2.6v1.2c11.8,2.4,19.4,14,17,25.8s-14,19.4-25.8,17C29.1,69.3,21.8,60.4,21.8,50z
		 M24.3,50c0,10.7,8.7,19.4,19.4,19.4S63,60.7,63,50s-8.7-19.4-19.4-19.4l0,0C33,30.6,24.3,39.3,24.3,50z M36.6,17.7
		c0,3.2,2.2,6,5.3,6.8v-1.7h-1.7v-3h6.9v3h-1.7v1.7c3.8-1,6-4.8,5-8.6s-4.8-6-8.6-5C38.8,11.7,36.6,14.5,36.6,17.7L36.6,17.7z
		 M42.6,67.9V64h2.6v3.9H42.6z M38.6,67.1l1-3.8l1.4,0.4l-1,3.8L38.6,67.1z M46.8,63.7l1.4-0.4l1,3.8l-1.4,0.4L46.8,63.7z
		 M34.3,65.1l2-3.4l1.3,0.7l-2,3.4L34.3,65.1z M50.3,62.5l1.3-0.7l2,3.4l-1.3,0.7L50.3,62.5z M30.7,62.1l2.8-2.8l1.1,1.1l-2.8,2.8
		L30.7,62.1z M53.3,60.4l1.1-1.1l2.8,2.8l-1.1,1.1L53.3,60.4z M28,58.3l3.4-2l0.8,1.3l-3.4,2L28,58.3z M55.7,57.6l0.7-1.3l3.4,2
		l-0.7,1.3L55.7,57.6z M38.2,50c0-3,2.4-5.4,5.4-5.4c0.7,0,1.3,0.1,1.9,0.3l5.5-9.5l0.3,0.2l0.9-1.5l1.3,0.7l-0.9,1.5l0.3,0.2
		l-5.5,9.6c2.1,2.1,2.2,5.5,0.1,7.7S42,56,39.9,53.9C38.8,52.9,38.2,51.5,38.2,50L38.2,50z M39.9,50c0,2.1,1.7,3.8,3.8,3.8
		c2.1,0,3.8-1.7,3.8-3.8c0-2.1-1.7-3.8-3.8-3.8c0,0,0,0,0,0C41.6,46.2,39.9,47.9,39.9,50z M26.4,53.9l3.8-1l0.4,1.4l-3.8,1
		L26.4,53.9z M57.3,54.3l0.4-1.4l3.8,1l-0.4,1.5L57.3,54.3z M41.7,50c0-1.1,0.9-2,2-2s2,0.9,2,2c0,1.1-0.9,2-2,2c0,0,0,0,0,0
		C42.6,52,41.7,51.1,41.7,50z M57.9,51.3v-2.6h3.9v2.6H57.9z M26,51.3v-2.6h3.9v2.6H26z M57.3,45.6l3.8-1l0.4,1.4l-3.8,1L57.3,45.6z
		 M26.4,46.1l0.4-1.4l3.8,1l-0.4,1.4L26.4,46.1z M55.7,42.3l3.4-2l0.7,1.3l-3.4,2L55.7,42.3z M28,41.7l0.7-1.3l3.4,2l-0.7,1.3
		L28,41.7z M53.3,39.5l2.8-2.8l1.1,1.1l-2.8,2.8L53.3,39.5z M30.7,37.8l1.1-1.1l2.8,2.8l-1.1,1.1L30.7,37.8z M34.3,34.8l1.3-0.7
		l2,3.4l-1.3,0.7L34.3,34.8z M46.8,36.3l1-3.8l1.4,0.4l-1,3.8L46.8,36.3z M38.6,32.8l1.4-0.4l1,3.8l-1.4,0.4L38.6,32.8z M42.6,36V32
		h2.6V36L42.6,36z M55.7,30.9l2-2.4l4,3.4l-2,2.4L55.7,30.9z M25.6,32l4-3.4l2,2.4l-4,3.4L25.6,32z"/>
</g>
</svg>
