<?xml version="1.0" encoding="utf-8"?>
<!-- Generator: Adobe Illustrator 23.0.2, SVG Export Plug-In . SVG Version: 6.00 Build 0)  -->
<svg version="1.1" id="Layer_1" xmlns="http://www.w3.org/2000/svg" xmlns:xlink="http://www.w3.org/1999/xlink" x="0px" y="0px"
	 viewBox="0 0 118.8 118.8" style="enable-background:new 0 0 118.8 118.8;" xml:space="preserve">
<style type="text/css">
	.st0{fill:#FFFFFF;}
</style>
<g id="i-timer" transform="translate(-1004.59 -2076.59)">
	<path id="i-timer-2" class="st0" d="M1035,2146.2c0-14.4,10.1-26.8,24.1-29.8v-1.7h3.8v-1.6c-6.5-1.4-10.7-7.8-9.4-14.3
		s7.8-10.7,14.3-9.4c6.5,1.4,10.7,7.8,9.4,14.3c-1,4.7-4.7,8.4-9.4,9.4v1.6h3.7v1.7c16.5,3.4,27.1,19.5,23.7,35.9
		c-3.4,16.5-19.5,27.1-35.9,23.7C1045.2,2173.1,1035,2160.7,1035,2146.2z M1038.4,2146.2c0,14.9,12.1,27,27,27c14.9,0,27-12.1,27-27
		c0-14.9-12.1-27-27-27C1050.5,2119.3,1038.5,2131.3,1038.4,2146.2z M1055.6,2101.3c0,4.5,3,8.4,7.3,9.5v-2.3h-2.4v-4.2h9.7v4.2
		h-2.4v2.3c5.2-1.4,8.4-6.7,7-11.9c-1.4-5.2-6.7-8.4-11.9-7C1058.7,2092.9,1055.6,2096.8,1055.6,2101.3L1055.6,2101.3z M1064,2171.2
		v-5.5h3.6v5.5L1064,2171.2z M1058.3,2170.1l1.4-5.3l2,0.5l-1.4,5.3L1058.3,2170.1z M1069.8,2165.3l2-0.5l1.4,5.3l-2,0.5
		L1069.8,2165.3z M1052.4,2167.3l2.7-4.7l1.8,1l-2.7,4.7L1052.4,2167.3z M1074.6,2163.6l1.8-1l2.7,4.7l-1.8,1L1074.6,2163.6z
		 M1047.4,2163.1l3.9-3.9l1.5,1.5l-3.9,3.9L1047.4,2163.1z M1078.8,2160.7l1.5-1.5l3.9,3.9l-1.5,1.5L1078.8,2160.7z M1043.6,2157.8
		l4.7-2.7l1,1.8l-4.7,2.7L1043.6,2157.8z M1082.2,2156.9l1-1.8l4.7,2.7l-1,1.8L1082.2,2156.9z M1057.9,2146.2c0-4.2,3.4-7.6,7.6-7.6
		c0.9,0,1.8,0.2,2.7,0.5l7.6-13.2l0.4,0.3l1.2-2.1l1.8,1l-1.2,2.1l0.4,0.2l-7.7,13.4c3,2.9,3.1,7.7,0.1,10.7s-7.7,3.1-10.7,0.1
		C1058.7,2150.2,1057.9,2148.3,1057.9,2146.2L1057.9,2146.2z M1060.2,2146.2c0,2.9,2.4,5.3,5.3,5.3c2.9,0,5.3-2.4,5.3-5.3
		c0-2.9-2.4-5.3-5.3-5.3c0,0,0,0,0,0C1062.5,2141,1060.2,2143.3,1060.2,2146.2L1060.2,2146.2z M1041.4,2151.7l5.3-1.4l0.5,2
		l-5.3,1.4L1041.4,2151.7z M1084.4,2152.3l0.5-2l5.3,1.4l-0.5,2L1084.4,2152.3z M1062.7,2146.2c0-1.5,1.2-2.7,2.7-2.7
		c1.5,0,2.7,1.2,2.7,2.7s-1.2,2.7-2.7,2.7c0,0,0,0,0,0C1063.9,2149,1062.7,2147.8,1062.7,2146.2L1062.7,2146.2z M1085.3,2148v-3.6
		h5.5v3.6H1085.3z M1040.8,2148v-3.6h5.5v3.6H1040.8z M1084.4,2140.2l5.3-1.4l0.5,2l-5.3,1.4L1084.4,2140.2z M1041.4,2140.8l0.5-2
		l5.3,1.4l-0.5,2L1041.4,2140.8z M1082.2,2135.6l4.7-2.7l1,1.8l-4.7,2.7L1082.2,2135.6z M1043.6,2134.6l1-1.8l4.7,2.7l-1,1.8
		L1043.6,2134.6z M1078.9,2131.7l3.9-3.9l1.5,1.5l-3.9,3.9L1078.9,2131.7z M1047.4,2129.3l1.5-1.5l3.9,3.9l-1.5,1.5L1047.4,2129.3z
		 M1052.4,2125.1l1.8-1l2.7,4.7l-1.8,1L1052.4,2125.1z M1069.8,2127.1l1.4-5.3l2,0.5l-1.4,5.3L1069.8,2127.1z M1058.3,2122.4l2-0.5
		l1.4,5.3l-2,0.5L1058.3,2122.4z M1064,2126.7v-5.5h3.6v5.5L1064,2126.7z M1082.2,2119.7l2.8-3.3l5.6,4.7l-2.8,3.3L1082.2,2119.7z
		 M1040.3,2121.1l5.6-4.7l2.8,3.3l-5.6,4.7L1040.3,2121.1z"/>
</g>
</svg>
